<?xml version="1.0" encoding="utf-8"?>
<!DOCTYPE svg PUBLIC "-//W3C//DTD SVG 1.0//EN" "http://www.w3.org/TR/2001/REC-SVG-20010904/DTD/svg10.dtd">
<svg version="1.0" xmlns="http://www.w3.org/2000/svg" width="1280px" height="720px" viewBox="0 0 1280 720" preserveAspectRatio="xMidYMid meet">
 <g fill="#ffffff">
  <path d="M319.3 622.7 c-0.4 -0.7 -0.8 -43.9 -0.9 -96.2 -0.1 -52.2 -0.2 -95.6 -0.3 -96.2 -0.2 -1.9 -1.3 -1.6 -5 1.7 -2.1 1.8 -4.5 3 -6.2 3 -3.4 0 -3.1 2.7 -3.3 -29.4 -0.1 -15.9 0.3 -24.4 1 -25.4 0.9 -1.3 2.3 -0.9 9.5 2.5 10.7 5.1 19 7.4 28.2 7.6 10.6 0.2 18.1 -1.4 25.9 -5.5 2.5 -1.4 7.8 -6.9 7.8 -8.3 0 -0.3 0.7 -1.3 1.5 -2.1 0.8 -0.9 1.5 -2.3 1.5 -3.3 0 -0.9 0.8 -2.6 1.9 -3.7 1.6 -1.8 3 -2 12 -1.8 5.6 0.1 10.5 0.4 10.8 0.8 0.9 0.9 0.7 66.2 -0.2 70.1 -0.4 1.7 -0.8 3.5 -0.9 4 -0.1 0.6 -0.4 1.5 -0.7 2 -0.4 0.6 -1.2 2.7 -1.8 4.8 -0.7 2 -1.6 3.7 -2.1 3.7 -0.5 0 -1.2 0.9 -1.5 2 -0.3 1.1 -1.2 2.6 -1.8 3.2 -0.7 0.7 -2.8 3.3 -4.7 5.8 -4 5.1 -6.9 8.7 -8.8 10.6 -1.7 1.7 -7.6 9.5 -8.6 11.4 -0.5 0.8 2 -1.2 5.4 -4.5 21.6 -20.5 25.7 -26.3 30.1 -42.5 0.9 -3.1 1.3 -15.5 1.4 -40.7 0.1 -36 0.1 -36.2 -1.9 -36.2 -3.9 0.1 -86.1 0.1 -89.9 -0.1 -6 -0.2 -7.8 0.7 -7.1 3.5 0.6 2.4 0.5 2.5 -11 11 -4.9 3.7 -11.3 5.6 -12.5 3.8 -0.3 -0.5 -3.5 -3 -7.1 -5.4 -8.3 -5.5 -8.9 -6.2 -9.6 -9.6 l-0.6 -2.8 -23.6 -0.3 c-20.8 -0.2 -69.9 -0.3 -74.3 -0.2 -1.4 0 -1.5 3.9 -1.4 36.8 0.2 31.6 0.5 37.2 1.9 40.5 0.9 2 1.4 3.7 1.1 3.7 -0.2 0 0.6 2.5 1.9 5.5 4.2 9.3 7.2 13.1 24.4 30.8 4.7 4.8 6.6 5.9 5.6 3.2 -0.4 -0.8 -1 -1.5 -1.5 -1.5 -0.5 0 -0.9 -0.5 -0.9 -1.1 0 -1 -9.4 -12.6 -11.5 -14.1 -0.5 -0.4 -0.6 -0.8 -0.2 -0.8 0.5 0 0.1 -0.8 -0.9 -1.7 -2 -2.1 -9.7 -13.9 -10.9 -16.8 -1.1 -2.7 -1.2 -3.1 -3.2 -11.5 -1.1 -4.7 -0.7 -65 0.5 -66.2 1 -1 16.9 -2 20.1 -1.1 1 0.2 2.6 2.1 3.5 4.1 1.8 3.7 7.5 11.4 8.9 12 0.4 0.2 1.4 1 2.2 1.9 0.8 0.8 1.5 1.1 1.5 0.7 0 -0.4 0.8 0 1.8 0.9 0.9 0.8 3 2 4.5 2.6 2.6 1 14.2 2.5 17.7 2.3 6.1 -0.3 13.9 -1.7 16.2 -2.8 1.5 -0.8 3.5 -1.5 4.5 -1.7 2.3 -0.4 8 -3.1 11.6 -5.4 3.1 -2 5.7 -1.1 6.4 2.3 0.4 1.5 0.7 44.7 0.4 50.6 -0.2 3.4 -4.5 2.5 -12.4 -2.7 l-2.2 -1.4 -0.1 96 c0 83 -0.2 96.2 -1.4 96.9 -2.3 1.5 -3.6 1.2 -4.8 -1.2 -1.8 -3.5 -11.8 -18.5 -13.2 -19.8 -0.3 -0.3 -2.3 -2.7 -4.5 -5.5 -2.1 -2.7 -4.4 -5.3 -5 -5.7 -0.5 -0.4 -1 -1.1 -1 -1.6 0 -1.4 -24.1 -24.8 -29.2 -28.3 -2.6 -1.8 -5.4 -3.9 -6.2 -4.7 -1.3 -1.2 -6.4 -4.8 -11 -7.7 -0.9 -0.5 -1.8 -1.3 -2.1 -1.6 -0.3 -0.3 -3.4 -2.3 -7 -4.5 -3.6 -2.1 -6.7 -4.2 -6.8 -4.7 -0.2 -0.4 -0.7 -0.5 -1.2 -0.2 -0.4 0.3 -2.4 -0.6 -4.4 -2 -2 -1.3 -3.6 -2.2 -3.6 -1.8 0 0.3 -0.8 -0.1 -1.7 -0.9 -2.3 -2 -8.3 -5 -8.3 -4.2 0 0.4 -0.6 0.1 -1.3 -0.5 -0.8 -0.6 -1.7 -0.8 -2 -0.4 -0.4 0.3 -0.7 0.1 -0.7 -0.5 0 -0.7 -0.3 -1.1 -0.7 -1 -0.5 0.1 -2.1 -0.4 -3.8 -1.1 -8.1 -3.6 -26 -9.4 -31.7 -10.5 -1.5 -0.2 -3.1 -0.7 -3.6 -1 -0.5 -0.3 -3.7 -1 -7.3 -1.6 -3.5 -0.6 -7.3 -1.3 -8.4 -1.6 -11.3 -2.3 -26.3 -4.1 -41 -5 -9.6 -0.5 -12.5 -1.4 -12.5 -3.8 0 -0.6 3.7 -5 8.3 -9.7 4.5 -4.7 10.2 -11 12.7 -13.9 2.5 -2.9 5.4 -6.3 6.5 -7.5 7.2 -8.1 19 -23.7 27.6 -36.5 3.1 -4.7 6.9 -9.8 8.3 -11.5 1.4 -1.6 2.6 -3.5 2.6 -4.2 0 -0.7 1 -2.7 2.3 -4.6 1.2 -1.8 3.6 -6 5.2 -9.3 1.7 -3.2 3.2 -6.1 3.5 -6.4 1 -1 8.8 -18.2 8.9 -19.5 0.1 -0.3 0.7 -2.1 1.5 -4 0.8 -1.9 1.3 -3.5 1.1 -3.5 -0.3 0 0.4 -2.4 1.5 -5.2 2.2 -6 2.8 -10.7 4.4 -32.8 0.3 -3.7 0.8 -4.6 2.9 -5.5 1.6 -0.6 25.8 -1 68.8 -0.9 36.5 0.1 66.9 -0.2 67.4 -0.7 0.9 -0.7 1.2 -114.7 0.5 -167.9 -0.1 -4.7 -0.1 -9.4 -0.1 -10.6 0.1 -2.8 16.6 -19.4 19.3 -19.4 2 0 14.2 11.6 17.5 16.7 2.2 3.3 2.4 10.5 2.6 101.8 l0.2 80 66.5 0.2 c36.6 0.1 67.5 0.2 68.7 0.2 2.6 0.1 3.4 3.1 3.8 13.9 0.3 6.7 0.9 11.4 1.9 16.2 1 4.8 1.4 6.5 1.6 6.5 0.1 0 0.3 0.8 0.5 1.7 1.1 5.6 2.7 9.7 8.9 23.1 2.5 5.3 4.6 9.9 4.6 10.2 0 0.3 0.8 1.4 1.8 2.5 0.9 1.1 1.7 2.4 1.7 2.8 0.1 1.3 8.7 15.5 16.4 27 4.2 6.2 8.4 12.8 9.5 14.5 1 1.8 2.8 4.2 4.1 5.5 1.2 1.2 3.5 4.1 5.1 6.4 2.9 4.2 5.7 7.9 8.2 10.4 0.6 0.7 1.2 1.5 1.2 1.7 0 0.5 5.4 6.7 9.8 11.4 1.2 1.3 2.2 2.6 2.2 2.8 0 0.2 1.6 2.1 3.6 4.2 5.8 6 11.4 13.4 11.4 14.8 0 1.9 -2.6 2.5 -11.7 3 -7.6 0.4 -16.3 1.3 -21.3 2.1 -1.4 0.2 -5 0.7 -8 1 -3 0.4 -5.9 1 -6.5 1.4 -0.5 0.3 -2.9 0.8 -5.2 0.9 -2.3 0.1 -6.5 0.9 -9.5 1.7 -2.9 0.8 -6.6 1.7 -8.3 2 -1.6 0.3 -3.6 1.1 -4.2 1.6 -0.7 0.6 -1.3 0.7 -1.3 0.3 0 -0.4 -0.6 -0.2 -1.3 0.4 -0.8 0.6 -1.6 0.8 -1.9 0.5 -0.4 -0.3 -2 0.2 -3.7 1.1 -1.8 0.9 -3.6 1.3 -4.1 1 -0.5 -0.3 -1.1 -0.1 -1.5 0.5 -0.3 0.5 -1.3 1 -2.1 1 -0.8 0 -3.1 0.7 -5.2 1.6 -2 1 -4.1 1.8 -4.7 1.8 -2.3 0.4 -30.4 14.2 -38 18.7 -1.6 1 -4.5 2.6 -6.2 3.5 -1.8 0.9 -3.3 2.1 -3.3 2.7 0 0.6 -0.3 0.8 -0.6 0.4 -0.3 -0.3 -1.8 0.5 -3.2 1.8 -1.5 1.3 -3 2.4 -3.4 2.4 -0.5 0.1 -1.7 0.9 -2.8 1.9 -4.8 4.3 -6.8 5.9 -10.8 9.1 -7.7 6 -25.5 24.4 -30.4 31.5 -1.2 1.7 -2.8 3.7 -3.4 4.3 -0.7 0.7 -2.2 2.9 -3.5 5 -1.3 2.1 -2.6 4 -2.9 4.3 -0.3 0.3 -2.5 3.5 -4.9 7.2 -4.3 6.5 -7.4 8.8 -8.8 6.5z"/>
  <path d="M1120 460.6 l0 -9.6 16.6 0 c9.1 0 19.8 -0.5 23.7 -1.1 13.5 -2.1 22.6 -8.3 27.6 -18.9 l2.6 -5.5 0.3 -52.3 0.3 -52.3 -23.3 0.3 c-22.7 0.3 -23.4 0.4 -28.8 2.9 -11.5 5.4 -18 14.6 -20.2 28.2 -3.8 24.9 11.5 43.8 35.6 43.7 9.7 -0.1 15.4 -1.6 25.9 -6.8 0.4 -0.2 0.7 4.1 0.7 9.6 l0 10 -4.8 2 c-10.7 4.6 -26.2 5.7 -37.6 2.7 -18.8 -5 -35.5 -21.8 -39.6 -40 -1.7 -7.5 -1.4 -23.5 0.5 -30.2 6 -20.5 23.1 -36.4 44 -40.8 5.3 -1.1 14.6 -1.5 37.8 -1.5 l30.8 0 -0.4 61.3 c-0.3 66.4 -0.2 65.1 -6.1 77.1 -3.1 6.4 -12 15.6 -19.9 20.7 -3.3 2.2 -9.7 5.1 -14.1 6.6 -7.5 2.4 -9.7 2.7 -29.8 3.1 l-21.8 0.4 0 -9.6z"/>
  <path d="M640.2 417.5 c-19.3 -9 -33.9 -23.3 -42.9 -42.1 -8.7 -18.4 -8.7 -18 -9.1 -76.1 l-0.3 -51.3 11 0 11 0 0.4 49.8 c0.3 47.1 0.5 50.1 2.5 57.2 3.1 10.8 8.5 20.8 14.8 27.3 5.3 5.5 16.8 13.7 19 13.7 2.4 0 13.4 -8.3 19.1 -14.3 6.4 -6.9 12 -17.2 14.9 -27.7 1.6 -5.8 1.8 -12.1 2.2 -56.2 l0.3 -49.8 11 0 11 0 -0.3 49.8 -0.4 49.7 -2.7 10 c-7.4 27.4 -22.6 46.3 -47.4 59 -3.7 1.9 -7.2 3.5 -7.8 3.5 -0.5 0 -3.4 -1.1 -6.3 -2.5z"/>
  <path d="M744 368.5 l0 -47.5 -9.9 0 -9.9 0 4.6 -10 4.6 -10 15.3 0 15.3 0 0 57.5 0 57.5 -10 0 -10 0 0 -47.5z"/>
  <path d="M797 332 l0 -84 10 0 10 0 0 49.5 0 49.5 10.7 -0.3 10.8 -0.2 12.3 -22.7 12.3 -22.8 11 0 c6.1 0 10.8 0.3 10.6 0.8 -0.2 0.4 -6.6 11.4 -14.1 24.4 -7.5 13 -13.6 24.1 -13.6 24.5 0 0.4 3 2.1 6.5 3.7 15.6 6.9 22.4 21.9 22.5 48.9 l0 12.7 -9.9 0 -9.8 0 -0.5 -13.2 c-0.7 -16.9 -2.6 -22.7 -10 -29.2 -6.9 -6.3 -14.6 -8.6 -28.4 -8.6 l-10.4 0 0 25.5 0 25.5 -10 0 -10 0 0 -84z"/>
  <path d="M922 368.5 l0 -47.5 -9.5 0 c-5.2 0 -9.5 -0.2 -9.5 -0.4 0 -0.2 2.1 -4.7 4.6 -10 l4.5 -9.6 15 0 14.9 0 0 57.5 0 57.5 -10 0 -10 0 0 -47.5z"/>
  <path d="M977 358.4 l0 -57.7 29.3 0.6 c36.3 0.7 41.8 1.8 52.4 10.4 2.4 1.9 5.4 5.4 6.8 7.7 4.9 8.3 5.5 14.7 5.5 57.4 l0 39.2 -9.9 0 -10 0 -0.3 -38.7 c-0.3 -34.8 -0.5 -39.2 -2.1 -42.8 -2.5 -5.5 -5.4 -8.4 -11.2 -11.1 -4.7 -2.2 -6.2 -2.4 -22.7 -2.4 l-17.8 0 0 47.5 0 47.5 -10 0 -10 0 0 -57.6z"/>
  <path d="M132.3 319.5 c-1.2 -0.9 -1.4 -2.6 -0.9 -9.6 1 -12.8 2.2 -22.4 3.2 -24 0.2 -0.3 0.6 -2.1 0.9 -4 0.3 -1.9 0.8 -4.1 1 -4.9 0.3 -1 -0.6 -2 -2.5 -2.8 -1.6 -0.8 -3.1 -1.2 -3.3 -1 -0.2 0.2 -1.2 -0.4 -2.2 -1.2 -2.1 -1.7 -4.6 -3.2 -10.3 -6 -7.1 -3.4 -9.7 -7.4 -7.1 -10.6 0.9 -1.1 0.7 -1.4 -1 -1.4 -1.2 0 -2.4 -0.7 -2.7 -1.5 -0.3 -0.8 -1.5 -1.7 -2.5 -2 -1.1 -0.4 -2.9 -1.6 -3.9 -2.8 -1.1 -1.1 -2 -1.7 -2 -1.2 0 0.4 -1.4 -0.6 -3 -2.4 -1.7 -1.7 -3.3 -3.1 -3.7 -3.1 -0.9 0 -13.3 -13.3 -13.3 -14.2 0 -0.4 -1.3 -2.2 -2.9 -4.1 -2.9 -3.2 -10.1 -17.5 -11.6 -22.7 -0.3 -1.4 -1.3 -3.9 -2.1 -5.6 -0.7 -1.8 -1.6 -6 -1.9 -9.5 -0.3 -3.5 -0.8 -7.5 -1.1 -8.9 -0.5 -2.3 -0.5 -12.2 -0.1 -25.7 0.1 -2.9 0.5 -5.3 0.8 -5.3 0.3 0 0.6 -0.6 0.7 -1.2 0.1 -0.7 0.4 -2.6 0.6 -4.3 0.7 -5.1 3 -13 4.1 -13.7 0.5 -0.4 0.7 -1 0.3 -1.3 -0.6 -0.7 4.7 -12.5 7.6 -17 0.9 -1.4 1.4 -2.5 1.2 -2.5 -0.5 0 5.3 -9.3 7.1 -11.5 0.5 -0.5 2 -2.6 3.3 -4.5 3.3 -4.6 10.8 -11.7 13.1 -12.3 3.5 -0.9 4.4 1.9 2.4 7.6 -1 2.9 -2.5 6.3 -3.2 7.7 -0.7 1.4 -1.3 3.5 -1.3 4.7 0 1.2 -0.5 2.5 -1 2.8 -0.6 0.4 -0.8 1 -0.5 1.5 0.3 0.5 0.2 1.7 -0.3 2.7 -1.4 2.7 -3.2 8.7 -3.8 12.5 -1.5 10.5 -1.8 14.1 -1.7 21.5 0.1 4.9 1.1 11.5 2.3 16 2.4 8.8 7.9 21.1 10.4 23.2 0.9 0.7 1.6 1.7 1.6 2.2 0 1.6 11 11.6 14.1 12.9 1.6 0.7 2.9 1.6 2.9 2 0 0.7 5.1 3.1 7.2 3.4 0.3 0.1 1 0.4 1.4 0.9 0.4 0.4 1.7 0.7 2.8 0.7 1.2 0 3.4 0.7 4.9 1.5 2.5 1.3 3.2 1.3 6.4 -0.5 2 -1.1 4 -1.7 4.5 -1.4 0.4 0.3 1.8 0.7 3 0.9 1.3 0.3 2.4 0.9 2.6 1.5 0.2 0.5 0.9 1 1.5 1 0.7 0 4.7 1.8 9 4 l7.8 4 11 -11 c6 -6 12.3 -11.7 13.9 -12.5 1.7 -0.9 3 -2 3 -2.5 0 -0.6 0.6 -1 1.4 -1 0.8 0 1.6 -0.7 2 -1.5 0.3 -0.8 1 -1.5 1.6 -1.5 0.5 0 1.9 -0.9 3 -2 1.2 -1.2 2.5 -1.8 3 -1.5 0.6 0.4 1 0.2 1 -0.3 0 -0.4 1.9 -1.9 4.3 -3.2 2.3 -1.3 4.4 -2.6 4.7 -2.9 0.3 -0.3 2.8 -1.6 5.5 -2.9 2.8 -1.3 5.8 -2.8 6.8 -3.3 0.9 -0.5 4.3 -1.9 7.5 -3 3.1 -1.1 6.4 -2.3 7.2 -2.6 1.9 -0.8 2.3 -0.9 9.3 -2.9 6.9 -2.1 7.8 -1.5 8.5 5.4 0.4 4.4 0.2 5 -2.2 6.5 -1.4 1 -2.6 1.5 -2.6 1.2 0 -0.3 -1.3 0.1 -3 1 -1.6 0.8 -3.1 1.5 -3.2 1.4 -1 -0.7 -6.7 1.7 -18.8 7.6 -11.7 5.7 -13.4 6.7 -16.1 9.1 -1.2 1 -2.3 1.7 -2.6 1.4 -0.2 -0.3 -1.4 0.5 -2.6 1.6 -1.2 1.2 -4 3.3 -6.2 4.8 -3.8 2.6 -10.9 8.6 -18.6 15.8 -4 3.7 -19.3 24.2 -22.7 30.3 -5.8 10.6 -13.5 27.8 -13.6 30.5 0 0.8 -0.3 1.7 -0.6 2 -0.7 0.6 -4.9 16.8 -5.7 21.5 -0.5 3.2 -0.8 6.5 -1.8 16 -0.3 3.3 -1.2 6.6 -1.9 7.3 -1.6 1.7 -8.3 2.1 -10.3 0.7z"/>
  <path d="M437.1 319.5 c-1.1 -1.3 -1.9 -5 -2.6 -11.1 -0.5 -4.2 -1 -7.3 -3 -17.9 -0.6 -2.9 -1.3 -6 -1.5 -6 -0.2 0 -1 -3.6 -1.2 -5.7 -0.1 -1 -0.5 -1.8 -0.8 -1.8 -0.3 0 -0.6 -1 -0.6 -2.3 -0.2 -3.5 -11.5 -28.8 -14.5 -32.3 -0.6 -0.8 -0.9 -1.4 -0.5 -1.4 0.3 0 -0.3 -0.9 -1.4 -2 -1.2 -1.2 -1.8 -2.5 -1.5 -3 0.4 -0.6 0.2 -1 -0.4 -1 -0.5 0 -2 -1.7 -3.2 -3.7 -1.3 -2.1 -2.6 -4 -2.9 -4.3 -0.3 -0.3 -2.7 -3.2 -5.2 -6.5 -6 -7.8 -15.3 -17.3 -20.3 -20.7 -2.2 -1.5 -5.3 -4 -7 -5.6 -3.3 -3 -16.1 -11.2 -17.6 -11.2 -0.5 0 -0.9 -0.4 -0.9 -0.9 0 -0.7 -5 -3.3 -7 -3.7 -0.3 0 -3.2 -1.3 -6.5 -2.8 -3.3 -1.5 -6.4 -2.9 -7 -3 -0.5 -0.1 -1.4 -0.4 -2 -0.8 -0.5 -0.3 -3.8 -1.4 -7.2 -2.3 l-6.3 -1.8 -0.1 -3.8 c-0.1 -2.2 -0.1 -5.1 -0.2 -6.6 -0.1 -2.5 0.3 -2.8 2.9 -2.6 4.5 0.2 14.2 2.9 15.9 4.3 0.8 0.7 1.5 1 1.5 0.6 0 -0.4 1.7 0.2 3.8 1.3 2 1 3.9 1.9 4.2 1.9 0.3 -0.1 2.6 0.9 5.2 2.1 2.6 1.1 5 2.1 5.3 2.1 0.4 0 2.1 1.1 3.8 2.4 1.8 1.3 5.3 3.4 8 4.6 2.6 1.2 4.7 2.6 4.7 3.1 0 0.5 0.6 0.9 1.3 0.9 0.7 0 3 1.6 5.2 3.5 2.2 1.9 4.3 3.5 4.7 3.5 0.7 0 3 2.1 12.5 11.1 2.1 2 5.7 5.8 8 8.4 3.7 4.1 4.7 4.6 7 4 1.5 -0.3 3.9 -1.5 5.4 -2.5 1.4 -1.1 2.9 -1.7 3.3 -1.3 0.3 0.3 0.6 0 0.6 -0.7 0 -0.7 0.3 -1.1 0.6 -0.8 0.3 0.3 3.1 -0.7 6.2 -2.3 6.8 -3.4 8.1 -3.5 11.1 -0.8 l2.3 2.1 7.6 -2.2 c4.3 -1.3 8.3 -2.3 9 -2.3 0.6 0 1.2 -0.3 1.2 -0.6 0 -0.4 2.3 -1.7 5 -3 2.8 -1.3 5 -2.8 5 -3.4 0 -0.6 0.3 -0.8 0.6 -0.5 1.1 1.1 14.7 -13.7 16.7 -18.2 1.1 -2.5 2.4 -4.7 2.8 -5 0.5 -0.3 1.8 -4.2 3 -8.5 3.1 -11.7 3.5 -32.2 0.8 -43.5 -1.1 -4.7 -2.3 -9.6 -2.6 -11 -0.6 -2.8 -3.7 -11.4 -6.5 -17.7 -1 -2.4 -1.8 -4.7 -1.8 -5.3 0 -0.6 -0.5 -1.9 -1.2 -2.9 -1.6 -2.7 0.7 -5.5 3.8 -4.7 2.5 0.7 14.4 11.8 14.4 13.5 0 0.5 0.7 1.4 1.7 1.9 1.7 1 13.9 22.5 14.8 26.2 0.1 0.3 1.6 5.1 3.4 10.7 4.2 13 5.9 25.7 5.5 40.8 -0.2 6.6 -0.5 12.7 -0.7 13.5 -0.2 0.8 -0.7 3.3 -1.2 5.5 -1.7 9 -10.4 30.4 -12.7 31.3 -0.4 0.2 -0.8 1 -0.8 1.8 0 0.8 -0.4 1.4 -0.8 1.4 -0.5 0 -1.4 1 -1.9 2.3 -1.9 3.8 -16.3 19.7 -18 19.7 -0.5 0 -2.5 1.6 -4.5 3.6 -2.1 1.9 -3.8 3.2 -3.8 2.8 0 -0.4 -1.3 0.5 -2.9 2 -1.5 1.5 -3.8 2.8 -5 2.9 -2 0.1 -2.1 0.5 -1.6 3.8 0.6 3.3 0.3 3.9 -2.3 5.8 -1.7 1.1 -3.4 2.1 -3.9 2.1 -0.4 0 -2.5 1.1 -4.4 2.5 -2 1.3 -6.4 3.8 -9.8 5.5 -6.5 3.3 -7.3 4.9 -4.5 8.8 0.9 1.3 1.3 2.6 1 2.9 -0.3 0.3 -0.1 1.3 0.3 2.2 2 3.7 4.3 31.2 2.8 32.7 -1.1 1.1 -9.8 1 -10.6 -0.1z"/>
  <path d="M154.4 319 l-2.9 -0.5 0.1 -9.5 c0.1 -5.2 0.9 -12.4 1.8 -16 0.9 -3.6 1.8 -8.1 2.1 -10 0.2 -1.9 1.4 -6 2.5 -9 1.2 -3 2.3 -6.2 2.5 -7.1 0.2 -0.9 0.8 -2.5 1.3 -3.5 0.6 -1.1 1.3 -2.6 1.5 -3.4 0.2 -0.8 0.6 -1.9 0.7 -2.5 0.2 -0.5 2.5 -4.7 5.2 -9.2 2.6 -4.5 4.8 -8.6 4.8 -9.1 0 -0.5 0.7 -1.6 1.6 -2.3 0.9 -0.8 2.8 -3.2 4.2 -5.4 1.4 -2.2 3 -4.4 3.6 -5.1 0.6 -0.6 2.2 -2.5 3.6 -4.4 2.3 -3 5.7 -6.5 17.1 -17.2 2.1 -2 5.9 -4.9 8.4 -6.3 2.5 -1.5 4.5 -3.2 4.5 -3.8 0 -0.6 0.3 -0.8 0.6 -0.4 0.3 0.3 1.6 -0.3 2.8 -1.5 1.8 -1.7 5.7 -3.8 7.6 -4.2 0.3 -0.1 1.2 -0.6 2 -1.1 4.6 -2.9 14.3 -7.4 15.1 -6.9 0.5 0.3 0.9 0 0.9 -0.7 0 -0.7 0.3 -0.9 0.7 -0.6 0.3 0.4 1.2 0.2 2 -0.4 0.7 -0.6 1.3 -0.8 1.3 -0.5 0 0.4 1 0.1 2.2 -0.5 3.8 -2 9.3 -2.2 10.8 -0.4 1 1.3 1.3 14.5 1.2 69.8 0 37.5 -0.1 68.7 -0.1 69.4 -0.1 0.6 -1.1 1.5 -2.3 1.9 -2.6 0.8 -102.7 1.2 -107.4 0.4z"/>
  <path d="M322.5 319.2 c-2.2 -0.2 -4.4 -0.7 -4.9 -1.3 -0.6 -0.5 -1.1 -28.4 -1.4 -69.3 l-0.4 -68.4 2.1 -2.1 c2.1 -2.1 6 -2.1 8.7 0 0.6 0.5 1.4 0.6 1.7 0.2 0.4 -0.3 1.2 -0.1 1.9 0.4 0.7 0.5 4.2 2 7.8 3.3 3.6 1.3 6.7 2.7 7 3.1 0.3 0.4 3.4 2.1 7 3.8 3.6 1.7 7.8 4.2 9.4 5.6 1.6 1.4 3.2 2.5 3.6 2.5 0.7 0 3 1.8 9.6 7.8 2.2 2 5.4 4.7 7 6 1.6 1.3 5.6 5.6 8.9 9.7 3.3 4.1 6.3 7.5 6.8 7.5 0.4 0 0.6 0.4 0.3 0.9 -0.3 0.4 0.6 1.9 1.9 3.1 1.4 1.3 2.5 2.7 2.5 3.1 0 0.4 1.7 3.4 3.8 6.6 8.4 12.8 19.4 41.6 20.7 54.3 0.2 1.9 0.6 5.3 1 7.5 1.9 11.5 1 15.4 -3.3 15.6 -5.6 0.2 -98.4 0.3 -101.7 0.1z"/>
  <path d="M743.5 276.7 c-3.1 -3.1 -3.5 -4.1 -3.5 -8.5 0 -4.4 0.5 -5.5 3.4 -8.6 3 -3.2 3.9 -3.6 8.3 -3.6 6.2 0 9.8 2.5 11.4 8.1 0.9 2.9 0.9 4.8 0.1 7.7 -1.7 5.5 -4.3 7.5 -10.7 8 -5.2 0.4 -5.6 0.3 -9 -3.1z"/>
  <path d="M924.2 278.7 c-5.2 -2.9 -7.1 -9.3 -4.6 -15.6 4.1 -10.3 19.3 -9.3 22.3 1.5 2.1 7.8 -3.4 15.4 -11.2 15.4 -2.3 -0.1 -5.2 -0.6 -6.5 -1.3z"/>
 </g>
</svg>