<?xml version="1.0" encoding="utf-8"?>
<!DOCTYPE svg PUBLIC "-//W3C//DTD SVG 1.0//EN" "http://www.w3.org/TR/2001/REC-SVG-20010904/DTD/svg10.dtd">
<svg version="1.0" xmlns="http://www.w3.org/2000/svg" width="2400px" height="720px" viewBox="0 0 2400 720" preserveAspectRatio="xMidYMid meet">
 <g fill="#ffffff">
  <path d="M2124 641.7 l0 -22.5 42.3 -0.4 c35.2 -0.4 43.8 -0.7 51.7 -2.2 20.4 -3.9 30.1 -8.8 43.1 -21.6 12.1 -12.1 17.5 -23.8 19.9 -43 0.6 -5.3 1 -47.9 1 -115.2 l0 -106.8 -44.7 0 c-49 0 -55 0.6 -69.1 6.3 -18.1 7.4 -33.3 22.9 -40.9 41.9 -8.3 20.5 -8.7 52.5 -0.8 72.1 7.5 18.6 22.5 33.6 41.7 41.3 24.4 10 63.9 5.9 87.1 -8.9 3.2 -2.1 6 -3.7 6.2 -3.7 0.3 0 0.5 10.5 0.5 23.4 l0 23.3 -8.7 4.1 c-17.5 8 -32.7 11.3 -53.3 11.3 -7.4 0 -16.7 -0.5 -20.5 -1 -49.2 -7.1 -91.5 -45 -102.6 -91.9 -6.1 -26.2 -3.8 -59.2 5.8 -82.8 13.6 -33.2 43.4 -61.1 77.3 -72.7 18.3 -6.2 15.8 -6 95.8 -6.4 l73.3 -0.4 -0.3 134.3 c-0.4 147.2 0 137.6 -6.4 157.8 -5.2 16.7 -12.1 27.7 -26.6 42.6 -14.1 14.5 -30 25.6 -44.8 31.3 -10.5 4 -30.4 8.8 -42 10.1 -5.2 0.6 -26.5 1.4 -47.2 1.7 l-37.8 0.6 0 -22.6z"/>
  <path d="M1057 547.1 c-12.9 -5.8 -27.7 -14.4 -39 -22.4 -13.1 -9.4 -36 -33 -44.8 -46.2 -13.5 -20.2 -24.9 -46.6 -30.1 -69.5 -5.6 -24.9 -5.4 -20.3 -5.8 -134.7 l-0.4 -106.3 25 0 25 0 0.4 101.2 c0.3 97.3 0.4 101.8 2.5 114.3 3.9 24.1 8.4 39.1 16.3 54.5 11.1 21.5 29.9 40.5 54.9 55.4 l8 4.7 6.3 -3.7 c15.7 -9.4 33.9 -25.1 43.5 -37.6 13.9 -18.1 22.8 -39.6 28.4 -68.8 2.1 -11.3 2.2 -13.5 2.5 -115.7 l0.4 -104.3 24.9 0 25 0 0 90.3 c0 89.8 -0.7 114.9 -3.6 132.2 -12.4 75.1 -53 128.7 -119.7 158.1 -4.3 1.9 -8.1 3.4 -8.5 3.4 -0.4 -0.1 -5.4 -2.2 -11.2 -4.9z"/>
  <path d="M1285 436 l0 -106 -21.9 -0.2 -21.8 -0.3 10.2 -21.5 10.2 -21.5 34.6 -0.3 34.7 -0.2 0 128 0 128 -23 0 -23 0 0 -106z"/>
  <path d="M1403 355 l0 -187 23.5 0 23.5 0 0 110 0 110.1 5.3 -0.8 c6.7 -0.9 26.5 -0.9 34.2 0 l6 0.7 27.5 -50.8 27.5 -50.7 25.3 -0.3 c14.5 -0.1 25.2 0.1 25 0.7 -0.1 0.4 -14.4 25.2 -31.6 54.9 -17.3 29.8 -31.2 54.5 -31.1 54.9 0.2 0.4 4 2.2 8.6 3.9 24.5 9.2 41.3 27.5 49.7 54.2 5 15.8 5.7 22.6 6.3 56 l0.5 31.2 -23.1 0 -23.1 0 0 -23.2 c0 -12.8 -0.5 -26.3 -1 -29.9 -4.3 -29.7 -22.5 -50.1 -51.5 -57.9 -9.2 -2.5 -31.6 -3.7 -45.8 -2.5 l-8.7 0.7 0 56.4 0 56.4 -23.5 0 -23.5 0 0 -187z"/>
  <path d="M1683 436 l0 -106 -21.8 -0.2 -21.9 -0.3 10.2 -21.5 10.2 -21.5 34.6 -0.3 34.7 -0.2 0 128 0 128 -23 0 -23 0 0 -106z"/>
  <path d="M1804 413.9 l0 -128 61.8 0.4 c65.6 0.4 67.4 0.5 88.6 5.7 18 4.5 34.1 14.4 44 27 7.8 9.9 11.4 19 14.8 36.5 2 10.6 2.1 14.5 2.5 98.8 l0.4 87.7 -23 0 -23 0 -0.3 -82.7 -0.3 -82.8 -2.8 -9 c-1.6 -4.9 -4 -11.1 -5.4 -13.8 -5.5 -9.9 -17.3 -18 -32.1 -21.8 -6.7 -1.7 -11.2 -1.9 -43.4 -1.9 l-35.8 0 0 106 0 106 -23 0 -23 0 0 -128.1z"/>
  <path d="M548.7 438.5 l-1.7 -3.5 3 0 c2.8 0 3 0.3 3 3.5 0 2.2 -0.5 3.5 -1.3 3.5 -0.7 0 -2.1 -1.6 -3 -3.5z"/>
  <path d="M115.1 432.4 c-4 -3.3 -3.9 -4.4 0.4 -4.4 3.3 0 3.5 0.2 3.5 3.5 0 1.9 -0.2 3.5 -0.4 3.5 -0.3 0 -1.8 -1.2 -3.5 -2.6z"/>
  <path d="M542.1 426 l-2.2 -4 2.3 0 c5.3 0 6.8 1.1 6.8 4.6 0 2.9 -0.4 3.4 -2.3 3.4 -1.7 0 -3 -1.1 -4.6 -4z"/>
  <path d="M297 386 c0 -33.1 -0.2 -38 -1.5 -38 -0.8 0 -1.5 -0.7 -1.5 -1.5 0 -0.8 -0.9 -1.5 -2 -1.5 -1.1 0 -2.3 -0.7 -2.6 -1.5 -1 -2.5 -2.4 -1.7 -2.4 1.5 0 2.8 -0.3 3 -3.5 3 -2.9 0 -3.5 -0.4 -3.6 -2.2 0 -1.3 -0.3 -1.7 -0.6 -1 -0.2 0.6 -1.1 1.2 -1.9 1.2 -0.8 0 -1.4 0.5 -1.4 1.1 0 0.8 -2 0.9 -6.6 0.4 -4.8 -0.5 -6.9 -0.3 -7.4 0.5 -0.4 0.7 -2.8 1.5 -5.4 1.7 -7.4 0.9 -5.8 -1.7 4.7 -7.5 14.7 -8.1 34 -16.2 38.8 -16.2 0.5 0 0.9 20.8 0.9 49 0 48.3 0 49 -2 49 -2 0 -2 -0.7 -2 -38z"/>
  <path d="M99.5 417 l-5.9 -6 3.2 0 c4.6 0 9.4 4.8 9 9 l-0.3 3.1 -6 -6.1z"/>
  <path d="M182.7 419.8 c2.6 -4.6 4.3 -4.7 4.3 -0.4 0 3.4 -0.2 3.6 -3.1 3.6 l-3.1 0 1.9 -3.2z"/>
  <path d="M535.7 415 l-2.8 -5 3 0 c2.1 0 3.1 0.5 3.1 1.5 0 0.8 0.5 1.5 1 1.5 0.6 0 1 1.6 1 3.5 0 5 -2 4.4 -5.3 -1.5z"/>
  <path d="M187.3 415.5 c-1 -1.1 -0.3 -2.8 3.8 -8.9 12.1 -17.8 31.8 -38.5 47.8 -50 9 -6.4 11.1 -6.7 11.1 -1.1 0 2.8 -0.4 3.5 -2 3.5 -1.3 0 -2 0.7 -2 2 0 1.7 -0.7 2 -4.3 2 -3.3 0 -4.6 0.5 -6.1 2.5 -1 1.4 -2.3 2.5 -2.8 2.5 -1.8 0 -3.8 2.9 -3.8 5.4 0 1.4 -0.4 2.6 -1 2.6 -0.5 0 -1 0.9 -1 2 0 1.3 -0.7 2 -1.9 2 -1.6 0 -2 0.8 -2.3 3.8 -0.3 3.4 -0.6 3.7 -3.7 4 -2 0.2 -3.7 -0.2 -4.2 -1 -0.6 -0.9 -0.9 -0.4 -0.9 1.5 0 2 -0.5 2.7 -2 2.7 -1.1 0 -2 0.6 -2 1.3 0 0.7 -1 1.7 -2.2 2.2 -1.7 0.7 -2.4 2 -2.6 4.8 -0.3 3.2 -0.7 3.7 -2.8 3.7 -3.6 0 -5 1.8 -4.6 5.9 0.3 2.5 -0.2 4.3 -1.6 5.9 -2.2 2.5 -7 2.9 -8.9 0.7z"/>
  <path d="M599 411.5 c0 -3.3 0.2 -3.5 3.5 -3.5 l3.6 0 -2.8 3.5 c-1.5 1.9 -3.1 3.5 -3.5 3.5 -0.5 0 -0.8 -1.6 -0.8 -3.5z"/>
  <path d="M526.5 400.8 l-5.5 -8.3 3.2 -0.3 c1.8 -0.2 3.4 0.1 3.6 0.7 0.2 0.6 1.5 1.1 2.8 1.1 2.1 0 2.4 0.5 2.4 3.4 0 1.9 -0.6 3.7 -1.2 3.9 -0.8 0.3 -0.6 0.6 0.5 0.6 1.3 0.1 1.7 1 1.7 3.6 0 1.9 -0.4 3.5 -1 3.5 -0.5 0 -3.5 -3.7 -6.5 -8.2z"/>
  <path d="M490.3 396.2 l0.6 -4.8 -3.6 0.4 c-3.8 0.5 -5.3 -0.7 -5.3 -4.5 0 -1.6 -0.6 -2.3 -2 -2.3 -1.1 0 -2 -0.4 -2 -1 0 -0.5 -0.7 -1 -1.5 -1 -0.8 0 -1.5 -0.7 -1.5 -1.5 0 -0.8 -0.7 -1.5 -1.5 -1.5 -0.9 0 -1.5 -0.9 -1.5 -2.5 0 -1.8 -0.5 -2.5 -2 -2.5 -1.7 0 -2 -0.7 -2 -4.5 0 -2.5 0.3 -4.5 0.7 -4.5 1.1 0 19.1 18.1 24.9 25.1 6.8 8.4 7 9.9 0.8 9.9 l-4.7 0 0.6 -4.8z"/>
  <path d="M74.6 387.5 l-2.7 -3.5 3.5 0 c3.4 0 3.6 0.2 3.6 3.5 0 1.9 -0.4 3.5 -0.9 3.5 -0.5 0 -2.1 -1.6 -3.5 -3.5z"/>
  <path d="M175 387.5 c0 -2.4 0.5 -3.5 1.5 -3.5 0.9 0 1.5 -0.9 1.5 -2.5 0 -1.7 0.6 -2.5 1.8 -2.6 1.4 0 1.4 -0.2 -0.3 -0.8 -1.1 -0.5 -2.1 -0.4 -2.3 0 -0.2 0.5 -1.9 0.9 -3.7 0.9 -2.7 0 -3.4 -0.4 -3.7 -2.2 -0.2 -1.5 -1.1 -2.4 -2.5 -2.6 -1.3 -0.2 -2.3 -0.8 -2.3 -1.3 0 -0.5 -0.7 -0.9 -1.5 -0.9 -1 0 -1.5 -1 -1.5 -2.9 l0 -3 6.3 2.8 c3.4 1.6 9.2 3.8 13 5 3.7 1.3 6.7 2.5 6.7 2.7 0 0.9 -11.5 14.4 -12.2 14.4 -0.4 0 -0.8 -1.6 -0.8 -3.5z"/>
  <path d="M396 358.4 l0 -32.6 2.8 0.7 c9.5 2.3 41.5 17.5 45.9 21.8 2.1 2 0.4 5.4 -2.9 6.1 -7 1.4 -8.8 0.4 -8.8 -4.5 0 -1.7 -0.8 -1.9 -7.5 -1.9 -5.8 0 -7.7 -0.4 -8.1 -1.5 -0.9 -2.4 -2.4 -1.7 -2.4 1 0 2 -0.5 2.5 -2.5 2.5 -1.8 0 -2.5 0.5 -2.5 2 0 1.1 -0.7 2.3 -1.5 2.6 -0.8 0.4 -1.5 1.4 -1.5 2.4 0 1.3 -0.9 2 -2.7 2.2 -2.6 0.3 -2.9 0.7 -3.5 5.8 -0.3 3 -0.6 10.1 -0.7 15.8 -0.1 9.5 -0.2 10.2 -2.1 10.2 -2 0 -2 -0.7 -2 -32.6z"/>
  <path d="M517.1 387.1 c-2.8 -3.9 -2.7 -4.1 1.4 -4.1 3.3 0 3.5 0.2 3.5 3.5 0 4.4 -2.1 4.6 -4.9 0.6z"/>
  <path d="M510.6 378.8 c-0.9 -1.2 -1.5 -2.3 -1.3 -2.4 0.1 -0.1 4.7 -1.9 10.2 -3.9 5.5 -2.1 12.1 -4.8 14.8 -6.1 l4.7 -2.4 0 3 c0 2.3 -0.4 3 -2 3 -1.1 0 -2 0.4 -2 0.8 0 0.4 -1.6 1.4 -3.5 2.1 -1.9 0.7 -4 2.1 -4.5 3.2 -0.8 1.4 -2.1 1.9 -5.5 1.9 -3.3 0 -4.5 0.4 -4.5 1.5 0 2.3 -4.7 1.8 -6.4 -0.7z"/>
  <path d="M65.7 373.8 c-5.2 -9.1 -5.1 -8.8 -1.7 -8.8 2.7 0 3 0.3 3 3 0 2.3 0.4 3 2 3 1.6 0 2 0.7 2 3.5 0 4.8 -2.2 4.5 -5.3 -0.7z"/>
  <path d="M365 357 l0 -16 -2.6 1 c-3.9 1.5 -16.1 1.3 -17.1 -0.3 -0.5 -0.9 -2.1 -1.2 -4.5 -0.9 -3.2 0.3 -3.8 0.8 -3.8 2.7 0 1.3 -0.5 2.5 -1.1 2.7 -0.6 0.2 -1.3 3.2 -1.6 6.6 l-0.6 6.2 -3.3 0 -3.4 0 0 -20.8 c0 -11.5 0.3 -26.3 0.6 -33 l0.7 -12.1 6 -6.6 c11.7 -13 17.7 -12.7 29.3 1.3 l5.4 6.6 0 39.3 c0 38.6 0 39.3 -2 39.3 -1.9 0 -2 -0.7 -2 -16z"/>
  <path d="M151.3 366.3 c-0.7 -0.2 -1.3 -1.8 -1.3 -3.5 l0 -2.9 4.2 2.3 c5.4 3 6 4.8 1.6 4.7 -1.8 0 -3.9 -0.3 -4.5 -0.6z"/>
  <path d="M541.2 363.9 c0.3 -1 7.2 -5.6 20.1 -13.6 0.4 -0.2 0.7 1.2 0.7 3.1 0 2.5 -0.4 3.6 -1.5 3.6 -0.8 0 -1.5 0.7 -1.5 1.5 0 0.8 -0.9 1.5 -2 1.5 -1 0 -2.3 0.6 -2.7 1.3 -1.8 2.7 -14 5.2 -13.1 2.6z"/>
  <path d="M56.1 355 c-12.6 -27.2 -18.6 -59.5 -16.2 -87.6 2.1 -24.7 6.6 -41.4 16.6 -61.9 13.1 -26.8 25.9 -42 32.5 -38.5 2.7 1.5 2.6 4.7 -0.9 17.1 -12 43.3 -12 76.7 0 106.8 1.7 4.2 4.1 9.5 5.5 11.8 1.3 2.3 2.4 4.6 2.4 5.2 0 0.6 -2 2.1 -4.5 3.3 -5 2.5 -5.7 3.8 -2 3.8 1.6 0 2.5 0.6 2.5 1.5 0 0.8 0.8 1.5 1.7 1.5 1 0 3 1.5 4.5 3.3 2.3 2.6 2.8 4.2 2.8 8.5 l0 5.3 -5.2 -0.3 c-4.9 -0.3 -5.3 -0.5 -5.6 -3 -0.2 -1.6 -0.9 -2.8 -1.8 -2.8 -0.8 0 -1.4 -0.7 -1.4 -1.5 0 -1.1 -1.3 -1.5 -5.2 -1.5 -6.2 -0.1 -8.8 -1.6 -8.9 -5.6 -0.1 -2.7 -0.2 -2.7 -1.2 0.9 l-1.1 3.7 -5.6 0 c-7.9 0 -8.8 1 -9.2 10 l-0.3 7.5 3.7 -0.4 c3.8 -0.3 3.8 -0.3 3.8 3.3 0 2.5 -0.4 3.6 -1.5 3.6 -1.9 0 -1.9 2.7 0 6 1.9 3.3 2 9 0.1 9 -0.7 0 -3.2 -4.1 -5.5 -9z"/>
  <path d="M635 358.6 c0 -2.4 0.5 -3.6 1.4 -3.6 0.8 0 1.6 -1.6 1.9 -4.2 0.3 -2.4 1.1 -4.4 1.6 -4.6 0.6 -0.2 1.1 -1.5 1.1 -2.8 0 -1.3 0.3 -2.4 0.8 -2.4 0.8 0 4.2 -14.2 4.2 -17.5 0 -3.2 -4.4 -4.5 -15.8 -4.5 -5.7 0 -11.1 -0.4 -12.1 -0.9 -2.4 -1.4 -6.1 -0.2 -6.1 1.8 0 2.6 -2.1 4.1 -5.7 4.1 -2.3 0 -3.3 0.5 -3.3 1.5 0 0.8 0.5 1.5 1.1 1.5 0.6 0 0.9 1.7 0.7 4.3 -0.3 4.2 -0.3 4.2 -4.5 4.5 -3.2 0.2 -5 -0.3 -7.3 -2 -2.9 -2.1 -3.2 -2.2 -4.1 -0.5 -1 1.6 -7.9 2.6 -7.9 1 0 -0.3 2.2 -3.2 4.8 -6.2 8.2 -9.5 13.7 -17.6 19 -27.8 10.1 -19.7 13.6 -37.1 12.9 -62.8 -0.5 -18.2 -2.6 -30.3 -8.8 -50.8 -4.5 -15 -4.8 -18.2 -1.9 -19.7 7.3 -3.9 24.7 18 37.4 47.1 18.5 42.5 17.6 93.7 -2.4 138.6 -4.2 9.6 -7 11.9 -7 5.9z"/>
  <path d="M564.2 348.8 c0.2 -0.6 2.3 -2.7 4.6 -4.6 l4.2 -3.5 0 3.5 c0 1.9 -0.5 3.9 -1.2 4.6 -1.6 1.6 -8.1 1.6 -7.6 0z"/>
  <path d="M73 337.5 l0 -3.5 7 0 7 0 0 3.5 0 3.5 -7 0 -7 0 0 -3.5z"/>
  <path d="M105 329 c0 -3.3 0.4 -6 0.9 -6 1.5 0 8.1 8.5 8.1 10.4 0 1.2 -1 1.6 -4.5 1.6 l-4.5 0 0 -6z"/>
  <path d="M1296.3 239 c-6 -1.3 -9.6 -3.4 -13.6 -8.1 -9 -10.4 -9 -27.4 0 -37.8 5.7 -6.7 10.2 -8.6 20.8 -8.6 7.4 0 9.8 0.4 13.1 2.2 8.2 4.4 14.4 14.8 14.4 24.4 0 11.5 -5.6 21.6 -14.3 25.8 -4.9 2.3 -14.5 3.3 -20.4 2.1z"/>
  <path d="M1694.3 239 c-6 -1.3 -9.6 -3.4 -13.6 -8.1 -9.1 -10.5 -9 -26.4 0 -37.7 5.5 -6.7 10.1 -8.7 20.8 -8.7 7.4 0 9.8 0.4 13.1 2.2 11.8 6.3 17.5 22.3 12.7 35.7 -2.3 6.2 -8.2 12.9 -13.1 14.9 -5 2 -14.5 2.8 -19.9 1.7z"/>
 </g>
 <g fill="#f7f7f7">
  <path d="M132 535 l0 -17 97.5 0 c96.8 0 97.5 0 97.5 -2 0 -1.3 0.7 -2 2 -2 1.6 0 2 0.7 2 3.1 0 1.7 -0.5 3.9 -1 5 -1 1.9 -2.6 1.9 -51.3 1.8 -27.6 -0.1 -71 -0.1 -96.4 0 l-46.3 0.1 0 12 0 12 212.5 0 212.5 0 0 -12 0 -12 -30.7 -0.1 c-17 -0.1 -49.4 -0.1 -72 0 l-41.3 0.2 0 -3 0 -3.1 74 0 74 0 0 17 0 17 -216.5 0 -216.5 0 0 -17z"/>
  <path d="M380 520.5 c0 -2.5 0.1 -2.5 9 -2.5 8.9 0 9 0 9 2.5 0 2.5 -0.1 2.5 -9 2.5 -8.9 0 -9 0 -9 -2.5z"/>
  <path d="M366.3 521.3 c-1 -0.3 -1.3 -4.4 -1.3 -15.4 l0 -14.9 -2.9 0 c-2 0 -3 0.6 -3.4 1.9 -0.4 1.6 -1.9 1.9 -10 2.6 -5.3 0.4 -10.1 0.4 -10.7 0 -0.6 -0.3 -1 0.3 -1 1.5 0 3.3 -1.8 6 -4 6 -1.1 0 -2 0.5 -2 1 0 0.6 -0.9 1 -2 1 -1.9 0 -1.9 -1.2 -1.9 -85.7 0.1 -47.2 0.4 -84.7 0.9 -83.3 0.4 1.4 0.8 3.9 0.9 5.7 0.1 1.7 0.5 3.4 1 3.7 0.5 0.3 0.7 1.6 0.4 2.9 -0.3 1.2 -0.3 2 0 1.7 0.3 -0.3 0.8 -1.8 1.1 -3.4 0.3 -1.6 0.9 -3.2 1.3 -3.5 0.4 -0.3 0.8 -1.5 0.8 -2.6 0 -1.7 1 -2.1 6.8 -2.9 6 -0.8 6.9 -0.7 8.1 0.9 1 1.4 2.3 1.7 6.3 1.3 4.5 -0.4 11 -3.7 9.8 -5 -0.2 -0.2 0.5 -0.4 1.5 -0.4 1.9 0 2 0.8 2.1 13.8 0 7.6 0.2 15.6 0.3 17.8 0.2 2.2 0.4 37.3 0.4 78 l0.2 74 2.5 0 c1.8 0 2.5 0.5 2.5 2 0 1.6 -0.6 2 -3.2 1.9 -1.8 0 -3.9 -0.3 -4.5 -0.6z"/>
  <path d="M154 494 c0 -1.9 6 -22.9 8.9 -31.2 5.3 -15.4 16.2 -38.8 19.6 -42.2 0.9 -0.9 1.4 -1.6 1 -1.6 -0.8 0 3.4 -6.1 5.5 -7.8 1.3 -1.2 1.3 -1.3 0 -0.7 -0.8 0.4 -0.6 -0.1 0.4 -0.9 1.1 -0.9 1.6 -1.6 1 -1.6 -0.5 -0.1 0.1 -0.9 1.3 -1.9 1.2 -1 1.9 -2.1 1.6 -2.5 -0.3 -0.3 0.2 -0.8 1.1 -1.2 0.9 -0.3 1.4 -1 1.1 -1.4 -0.3 -0.5 1.5 -2.9 4 -5.5 2.6 -2.6 4 -4.4 3.3 -4 -0.7 0.3 0.7 -1.2 3.2 -3.5 2.5 -2.3 3.8 -3.9 3 -3.5 -0.8 0.4 2.8 -3.6 7.9 -8.8 5.2 -5.3 9.7 -9.5 9.9 -9.2 0.2 0.2 1.6 -1 2.9 -2.6 1.4 -1.6 2.7 -2.8 3 -2.6 0.2 0.2 2 -1.1 4 -2.9 2 -1.9 3.9 -3.2 4.1 -2.9 0.3 0.3 1.1 -0.3 1.9 -1.3 0.8 -0.9 1.2 -1.1 0.8 -0.4 -0.3 0.6 -0.4 1.2 -0.1 1.2 0.2 0 1.3 0.3 2.3 0.6 1.5 0.6 1.6 0.4 0.6 -0.7 -2 -2 -1.7 -2.3 4.3 -6.3 3.1 -2.1 5.3 -3.3 5 -2.8 -0.4 0.6 0.2 0.8 1.4 0.5 1.1 -0.3 2 -1.1 2 -1.8 0 -1.3 2.8 -3 4.3 -2.7 0.4 0.1 0.7 -0.2 0.7 -0.6 0 -0.5 1.1 -1.4 2.5 -2 2 -0.9 2.5 -0.9 2.5 0.3 0 0.9 -0.6 1.2 -1.7 0.9 -1.4 -0.5 -1.5 -0.4 -0.4 0.4 1.5 1.1 7.1 -0.6 7.1 -2.3 0 -0.5 0.5 -0.3 1 0.5 1 1.5 9 2.2 9 0.8 0 -1.6 7.8 -0.8 8.4 0.8 0.7 1.8 2.6 0.9 2.6 -1.2 0 -0.8 -1 -2.5 -2.1 -3.7 -1.2 -1.2 -1.9 -1.7 -1.5 -1 0.3 0.6 0.2 1.4 -0.3 1.7 -1 0.7 -0.9 -1.3 0.1 -3 0.9 -1.4 -2.3 -1.4 -4.2 0 -0.8 0.5 -1.2 0.6 -0.8 0.2 0.4 -0.5 0.3 -1.5 -0.3 -2.3 -0.9 -0.9 -0.8 -1.3 0 -1.3 0.6 0 1.1 0.5 1.1 1.1 0 0.5 0.5 0.7 1 0.4 0.6 -0.4 0.7 -1.1 0.4 -1.7 -0.4 -0.5 0.5 -0.2 2 0.7 1.4 1 2.6 2.1 2.6 2.6 0 0.5 0.5 0.9 1.1 0.9 0.6 0 0.8 -0.9 0.4 -2.2 -1.1 -3.6 -1.1 -4 0.5 -4.4 0.8 -0.1 2.4 -0.6 3.5 -0.9 2 -0.6 2 -0.1 2 83.7 l0 84.3 -48.2 0.3 -48.3 0.2 0 -2.5 c0 -1.8 0.5 -2.5 2 -2.5 1.3 0 2 -0.7 2 -2 0 -1.6 -0.7 -2 -3.5 -2 -3.4 0 -3.5 -0.1 -3.5 -3.9 0 -3.6 -0.2 -3.9 -3.5 -4.5 -3 -0.6 -3.5 -1.1 -3.5 -3.6 0 -4.9 -0.9 -6 -4.9 -6 -3 0 -4 0.5 -5.1 2.5 -1.1 2 -2.1 2.5 -5.2 2.5 -2.1 0 -3.8 0.4 -3.8 0.9 0 0.5 -1.8 1.2 -4 1.6 -3.9 0.7 -4 0.8 -4 4.6 0 3.7 -0.2 3.9 -3 3.9 -2.3 0 -3 0.5 -3 1.9 0 3.7 -3 9.1 -5 9.1 -1.1 0 -2 -0.4 -2 -1z m52.5 -21.1 c0.8 -2.4 0.7 -2.4 -2.2 -3.3 -1.4 -0.5 -2.3 -0.3 -2.3 0.3 0 0.6 0.5 1.1 1 1.1 0.6 0 1 0.9 1 2 0 2.6 1.7 2.6 2.5 -0.1z m91.7 -136.3 c0.2 -5.7 -0.1 -8 -0.9 -8.3 -0.9 -0.3 -1.3 0.8 -1.3 3.5 0 4.3 1.1 13.4 1.6 13 0.1 -0.2 0.4 -3.9 0.6 -8.2z m-25.1 6.4 c0.5 0 0.9 -0.4 0.9 -1 0 -1.6 -2.6 -1.2 -4.1 0.7 -1.2 1.5 -1.2 1.6 0.4 1 1 -0.4 2.3 -0.7 2.8 -0.7z"/>
  <path d="M395.3 493.4 c-0.3 -0.9 -0.3 -12 0.1 -24.8 0.3 -12.7 0.6 -36.4 0.7 -52.6 0 -27.3 1.1 -52.7 2.5 -59.2 0.3 -1.8 1 -2.5 2 -2.1 0.9 0.3 1.4 -0.2 1.4 -1.4 0 -1.4 0.7 -1.9 2.3 -1.9 1.6 0.1 2.3 -0.5 2.5 -2.1 0.3 -1.7 1 -2.3 2.8 -2.3 1.8 0 2.4 -0.5 2.4 -2.3 0 -1.7 0.9 -2.6 3.3 -3.5 4.4 -1.6 4.5 -1.6 4.9 1 0.2 1.2 1 2.4 1.8 2.6 1.2 0.4 1.3 0.2 0.3 -1 -1.1 -1.2 -0.8 -1.4 1.7 -1 1.7 0.2 3 0.9 3 1.4 0 0.5 0.4 0.6 1 0.3 1.2 -0.7 -1 -4.5 -2.6 -4.5 -2 0 -3.7 -2.7 -2.3 -3.6 0.8 -0.5 0.9 -0.3 0.4 0.6 -0.6 1 -0.4 1.2 0.9 0.7 1.1 -0.5 1.5 -0.3 1 0.5 -0.5 0.8 -0.2 0.9 0.9 0.5 1.1 -0.4 1.7 -0.1 1.7 0.8 0 1.9 2.1 3 3 1.5 0.5 -0.8 1 -0.8 1.4 -0.2 0.3 0.5 -0.1 1.2 -0.9 1.6 -0.8 0.3 -1.5 1 -1.5 1.6 0 0.6 1.2 0.2 2.7 -0.7 2.4 -1.6 2.6 -1.6 2.1 -0.1 -0.5 1.2 -0.1 1.6 1.7 1.3 1.3 -0.1 3.3 0.6 4.4 1.7 1.2 1 2.3 1.8 2.7 1.7 2.3 -0.7 28.8 19.6 27.8 21.3 -0.4 0.6 -0.3 0.8 0.3 0.5 1.2 -0.7 15.9 13.9 15.5 15.4 -0.1 0.6 0.1 0.8 0.6 0.5 0.5 -0.3 2.6 1.5 4.7 4.1 3 3.6 3.5 4.7 2.4 5.5 -1.1 0.8 -1 0.9 0.3 0.4 4 -1.2 22.8 30.2 33.1 55.4 4.5 11.1 12.7 36.4 13 40.4 l0.2 3.1 -14.2 0.3 -14.3 0.3 0 -2.6 c0 -2.5 0.1 -2.5 8 -2.5 7.8 0 8 -0.1 8 -2.4 0 -1.9 -0.4 -2.3 -2 -1.9 -1.1 0.3 -2.3 0.9 -2.6 1.4 -0.3 0.5 -2.3 0.9 -4.6 0.9 -3.1 0 -4.1 -0.4 -4.5 -2 -0.3 -1.1 -1.3 -2 -2.2 -2 -1.9 -0.1 -4.5 -3.5 -5.5 -7.2 -0.6 -2.8 -5.7 -5.8 -9.7 -5.8 -1 0 -2.2 -0.8 -2.8 -1.7 -0.8 -1.5 -1.2 -1.6 -2.2 -0.5 -1.6 1.5 -8.1 1.6 -9.7 0 -1.7 -1.7 -4.1 1.8 -4.2 6 0 2 -0.5 3.2 -1.3 3.2 -0.8 0 -2.4 0.9 -3.7 2 -2 1.8 -3.9 2 -16.4 2.2 -7.8 0.2 -16.7 0.2 -19.8 0.1 -3.2 -0.1 -5.8 0.2 -5.8 0.7 0 0.5 3.7 1 8.3 1.2 7.6 0.3 8.2 0.5 8.5 2.6 0.3 2.1 0.7 2.2 11.3 2.2 10.2 0 10.9 -0.1 10.9 -2 0 -1.7 0.7 -2 3.9 -2 3.5 0 3.9 0.3 4.5 3.1 1.2 6.2 0.9 6.9 -2.9 6.9 -2.4 0 -3.5 -0.5 -3.5 -1.5 0 -0.8 -0.4 -1.5 -1 -1.5 -0.5 0 -1 0.7 -1 1.5 0 1.3 -4.8 1.5 -37.5 1.5 -33.7 0 -37.6 -0.2 -38.2 -1.6z m43.3 -144.8 c1.2 -1.3 1.2 -1.5 -0.4 -1.3 -1 0 -1.9 0.7 -1.9 1.4 0 1.7 0.5 1.6 2.3 -0.1z"/>
  <path d="M180 481.5 c0 -3.3 0.2 -3.5 3.5 -3.5 3.3 0 3.5 0.2 3.5 3.5 0 3.3 -0.2 3.5 -3.5 3.5 -3.3 0 -3.5 -0.2 -3.5 -3.5z"/>
  <path d="M133.5 446.8 c-8.5 -5.9 -18 -13.9 -17.7 -15 0.1 -0.5 -0.1 -0.7 -0.6 -0.4 -2.2 1.4 -40.3 -40.6 -39.5 -43.5 0.2 -0.5 -0.1 -0.9 -0.7 -0.9 -1.5 0 -8.1 -11 -7.4 -12.3 0.4 -0.7 0.3 -0.9 -0.1 -0.4 -1 0.8 -4.6 -4.3 -3.9 -5.5 0.3 -0.4 0.1 -0.8 -0.4 -0.8 -1 0 -3.8 -6 -3.4 -7.2 0.1 -0.5 -0.3 -0.8 -0.9 -0.8 -0.5 0 -0.7 -0.4 -0.4 -1 0.3 -0.5 0.1 -1 -0.5 -1 -0.6 0 -0.8 -0.4 -0.5 -1 0.3 -0.5 0.1 -1 -0.5 -1 -0.6 0 -0.8 -0.4 -0.5 -1 0.3 -0.5 0.1 -1 -0.5 -1 -0.6 0 -0.8 -0.4 -0.5 -1 0.3 -0.5 0.1 -1 -0.5 -1 -0.7 0 -1 -0.6 -0.7 -1.2 0.2 -0.7 1 -1.2 1.6 -1 0.7 0.1 0.9 -0.2 0.6 -0.8 -0.4 -0.6 -1.3 -0.9 -2 -0.6 -1.5 0.5 -4.8 -7.1 -3.4 -8 0.5 -0.3 0.7 -1 0.4 -1.5 -0.4 -0.5 -0.3 -0.9 0.2 -0.9 0.4 0 0.8 -1.3 0.9 -2.8 0.1 -1.6 -0.4 -2.9 -1.1 -2.9 -0.7 0 -1 1.5 -0.9 3.9 0.1 2.1 -0.2 3.6 -0.6 3.3 -0.5 -0.3 -0.6 -1.5 -0.2 -2.7 0.3 -1.3 0.1 -1.9 -0.5 -1.5 -0.6 0.4 -1.3 -0.2 -1.6 -1.3 -0.3 -1.1 -0.2 -1.9 0.2 -1.8 0.3 0.1 1.4 -0.2 2.4 -0.7 1.7 -0.7 1.7 -0.9 -0.4 -3.1 -1.2 -1.3 -3 -2.4 -3.8 -2.5 -1 0 -0.7 -0.4 0.7 -1 2.7 -1 2 -2.9 -1.1 -3 l-2.2 0 2.3 -1.1 c1.8 -0.9 2.5 -0.7 4.2 1.2 1.1 1.3 2 3 2.1 3.9 0 1.2 0.2 1.1 0.9 -0.4 0.9 -2.2 7 -6.2 7 -4.6 0 0.6 1.8 1.1 4 1.1 4.1 0 4.7 -0.9 4.1 -5.7 -0.1 -0.7 0.8 -1.3 2 -1.3 4.1 0 8.9 -2.3 8.9 -4.2 0 -1.9 2.5 -2.5 3.5 -0.8 0.4 0.6 2.6 0 5.6 -1.6 l5.1 -2.5 -2.3 -2 c-1.2 -1 -1.8 -1.9 -1.4 -1.9 0.5 0 0.4 -0.5 -0.3 -1.2 -0.7 -0.7 -1.2 -2.2 -1.2 -3.4 0 -1.3 -0.6 -2.9 -1.3 -3.6 -1.9 -1.9 -3.1 -8.1 -1.4 -7.5 0.6 0.2 1.1 1.2 1.1 2.1 -0.1 0.9 0.2 1.6 0.8 1.6 0.5 0 0.6 0.5 0.3 1 -0.3 0.6 -0.1 1 0.5 1 0.6 0 0.8 0.5 0.5 1 -0.3 0.6 -0.1 1 0.6 1 0.7 0 1 0.3 0.7 0.6 -0.8 0.7 8 16 14 24.4 2.6 3.6 4.6 6.8 4.4 7.2 -0.1 0.5 0.1 0.7 0.6 0.6 0.4 -0.2 3.4 2.6 6.7 6.1 7.6 8.1 19.4 17.7 29.3 23.8 4.2 2.6 7.9 5.1 8 5.5 0.2 0.5 0.8 0.6 1.3 0.2 0.5 -0.3 0.9 0 0.9 0.5 0 0.6 0.3 1 0.8 0.9 1.1 -0.2 8.6 3.3 9.3 4.4 0.3 0.5 0.9 0.9 1.3 0.9 1.9 -0.3 2.7 0 2.1 0.8 -0.3 0.6 0.4 0.8 1.5 0.6 1.1 -0.2 2 0.1 2 0.7 0 0.6 0.3 0.8 0.7 0.5 0.3 -0.4 1.2 -0.2 2 0.4 0.7 0.6 1.3 0.8 1.3 0.4 0 -0.4 0.7 -0.2 1.5 0.5 0.8 0.7 1.5 0.9 1.5 0.5 0 -0.4 0.7 -0.2 1.5 0.5 0.8 0.7 1.5 0.9 1.5 0.5 0 -0.4 0.6 -0.2 1.3 0.4 0.8 0.6 1.6 0.9 1.9 0.6 0.3 -0.3 1 0 1.6 0.8 0.8 1 0 2.5 -3.6 6.4 -2.6 2.8 -4.8 5.4 -4.9 5.7 -0.1 0.4 -3.5 5.2 -7.4 10.7 -7.5 10.6 -18.5 28.6 -26.4 43.3 -2.6 4.7 -4.8 8.6 -4.8 8.5 -0.1 0 -2.9 -1.9 -6.2 -4.1z m-51.2 -109.5 c-1.3 -0.2 -3.3 -0.2 -4.5 0 -1.3 0.2 -0.3 0.4 2.2 0.4 2.5 0 3.5 -0.2 2.3 -0.4z m15.7 -7.6 c0 -2.2 -4.3 -8.1 -6.1 -8.3 -0.5 -0.1 -1.3 -0.2 -1.9 -0.3 -0.5 0 -1 -0.7 -1 -1.5 0 -1.6 -3.1 -1.6 -4.2 -0.1 -0.4 0.6 -0.8 0 -0.8 -1.1 0 -3.3 -3.8 -3.9 -5.2 -0.8 -0.6 1.3 -1.6 2.4 -2.2 2.4 -0.6 0 0 0.7 1.2 1.6 1.8 1.2 2.6 1.3 3.7 0.4 0.8 -0.7 2 -0.8 2.7 -0.4 0.7 0.5 1.8 0.9 2.3 1 0.6 0 1.6 0.2 2.3 0.2 0.6 0.1 1.2 0.9 1.2 1.7 0 0.8 0.7 1.5 1.5 1.5 0.8 0 1.6 0.6 1.6 1.3 0.1 1.1 0.4 2.4 0.7 3.7 0.1 0.3 1.1 0.6 2.2 0.7 1.4 0.1 2 -0.4 2 -2z m-47.3 -5.4 c-0.3 -0.3 -1.1 -0.2 -1.7 0.2 -0.8 0.5 -0.7 1.1 0.2 2.2 1.2 1.5 1.3 1.4 1.6 -0.1 0.2 -1 0.1 -2 -0.1 -2.3z"/>
  <path d="M552 445 c-1.7 -3.3 -2.7 -6 -2.3 -6 0.5 0 0.3 -0.4 -0.3 -0.8 -1.2 -0.7 -6.5 -10.7 -6.3 -11.8 0 -0.4 -0.3 -1 -0.8 -1.3 -1.5 -1 -5.5 -8.1 -4.6 -8.1 0.4 0 0 -0.5 -1 -1.1 -0.9 -0.6 -1.5 -1.4 -1.2 -2 0.4 -0.5 0.2 -0.9 -0.2 -0.9 -0.8 0 -4 -4.8 -4.2 -6.2 -0.1 -0.5 -1 -1.7 -2.1 -2.8 -1.2 -1.2 -1.8 -2.6 -1.4 -3.3 0.4 -0.7 0.4 -0.9 -0.1 -0.5 -1.1 1 -3.8 -2.9 -3 -4.2 0.4 -0.6 0.2 -0.9 -0.3 -0.8 -1 0.3 -15.4 -18.3 -14.7 -19 0.2 -0.2 0.9 -0.4 1.7 -0.6 0.7 -0.1 1.9 -0.5 2.6 -0.9 0.6 -0.5 1.7 -0.5 2.2 -0.2 0.6 0.3 1 0.1 1 -0.5 0 -0.6 0.4 -0.9 0.9 -0.5 0.5 0.3 1.2 0.1 1.6 -0.5 0.4 -0.6 1.1 -0.8 1.6 -0.5 0.5 0.4 0.9 0.2 0.9 -0.4 0 -0.6 0.7 -0.8 1.5 -0.5 0.8 0.4 1.5 0.1 1.5 -0.6 0 -0.6 0.5 -0.8 1 -0.5 0.6 0.3 1 0.1 1 -0.6 0 -0.7 0.3 -0.9 0.7 -0.6 0.3 0.4 1.2 0.2 2 -0.4 0.7 -0.6 1.3 -0.8 1.3 -0.5 0 0.4 0.7 0 1.6 -0.8 0.8 -0.9 2 -1.4 2.5 -1.1 0.5 0.4 0.9 0.2 0.9 -0.3 0 -0.9 7 -4.7 8.3 -4.4 0.4 0.1 0.7 -0.3 0.7 -1 0 -0.6 0.3 -0.8 0.7 -0.5 0.3 0.4 1.2 -0.1 2 -1.1 0.8 -0.9 1.2 -1.2 0.9 -0.6 -0.3 0.6 0.1 1.1 0.8 1.1 0.8 0 1.2 -0.7 0.8 -1.5 -0.3 -0.9 -0.1 -1.3 0.5 -0.9 0.6 0.4 1.4 0 1.7 -0.9 0.5 -1.3 0.9 -1.4 2 -0.5 1.1 0.9 1.4 0.8 1.2 -0.6 0 -1.1 0.5 -1.8 1.6 -1.7 1 0.1 1.6 -0.2 1.5 -0.6 -0.1 -0.4 2.3 -2.7 5.3 -5.1 3 -2.3 4.9 -3.4 4.1 -2.3 -0.8 1 0.5 -0.2 3 -2.8 5.4 -5.7 14.6 -13.8 13.4 -11.9 -0.6 1 -0.4 1.2 0.4 0.7 0.7 -0.5 1 -1.4 0.7 -2.1 -0.2 -0.7 1 -2.6 2.7 -4.1 l3.2 -2.9 -2.4 2.8 c-1.8 1.9 -2 2.7 -1 2.7 0.8 0 2.1 -0.6 2.8 -1.2 0.9 -0.8 1.1 -0.9 0.7 -0.1 -0.6 1 5.3 5.4 8.1 5.9 2.7 0.5 2.4 -1.9 -0.6 -4.3 -3.3 -2.7 -4.1 -5.3 -1.6 -5.3 0.8 0 2.3 -1.7 3.4 -3.7 1.6 -3 2 -3.4 2.1 -1.6 0 1.2 -0.6 2.4 -1.2 2.7 -0.7 0.2 0.2 0.4 2 0.3 4.5 -0.2 6.3 -2.4 2.7 -3.3 -5.1 -1.3 -1.9 -2.7 6 -2.6 18.3 0.1 31.6 0.9 32.7 2 0.7 0.7 2.4 1.2 3.9 1.2 3.3 0 4.5 3.1 1.8 4.8 -1.4 0.9 -1.6 1.7 -0.9 4.2 0.5 1.8 0.5 2.8 0 2.5 -1.2 -0.8 -2.4 4 -1.4 5.6 0.5 0.8 0.3 0.9 -0.6 0.4 -0.9 -0.5 -1 -0.2 -0.5 1.4 0.4 1.3 0.2 2.1 -0.5 2.1 -0.6 0 -1 0.6 -0.9 1.3 0.3 2.8 -0.2 4.8 -1.1 4.2 -0.5 -0.3 -0.7 0 -0.4 0.8 0.3 0.8 -0.1 2.1 -0.9 2.8 -0.7 0.8 -1.2 2 -0.9 2.7 0.2 0.6 -0.1 1.2 -0.7 1.2 -0.6 0 -1 0.3 -0.9 0.8 0.4 1.4 -1.3 5.2 -2.3 5.2 -0.6 0 -0.7 0.5 -0.4 1 0.7 1.1 -6 13.3 -13.8 25 -6.4 9.6 -19.4 26 -21.3 26.7 -0.8 0.3 -1.4 1.1 -1.4 1.7 0 1.6 -15.5 16.6 -24.5 23.8 -6.7 5.3 -20.7 14.8 -21.9 14.8 -0.3 0 -1.9 -2.7 -3.6 -6z"/>
  <path d="M421.6 340.4 c-0.9 -0.8 -1.6 -1.7 -1.6 -2 0 -0.4 3.8 1.8 5.9 3.3 0.2 0.2 -0.3 0.3 -1.2 0.3 -0.8 0 -2.3 -0.7 -3.1 -1.6z"/>
  <path d="M275.6 336 c-1.7 -0.6 -1.8 -0.7 -0.3 -1.3 0.9 -0.3 1.9 -0.2 2.3 0.4 0.9 1.5 0.2 1.8 -2 0.9z"/>
  <path d="M282.3 335.4 c-0.3 -0.7 -1.1 -1 -1.8 -0.8 -0.7 0.3 -1.6 -0.1 -2.1 -0.8 -0.4 -0.7 -0.4 -1 0.1 -0.6 0.4 0.4 1.4 0.3 2.1 -0.3 0.9 -0.7 1.4 -0.5 1.9 1 0.4 1.4 1.2 1.8 3 1.5 1.3 -0.2 2.6 -0.1 2.8 0.3 0.3 0.5 -0.8 0.8 -2.5 0.8 -1.7 0.1 -3.2 -0.5 -3.5 -1.1z"/>
  <path d="M415 335.9 c0 -0.5 -0.5 -0.7 -1.2 -0.3 -0.7 0.4 -0.8 0.3 -0.4 -0.4 0.5 -0.8 -0.1 -1.2 -1.4 -1.2 -1.2 0 -1.8 -0.4 -1.5 -1 0.3 -0.5 0.1 -1 -0.4 -1 -0.6 0 -1.1 -0.5 -1.1 -1.1 0 -0.8 0.4 -0.9 1.3 0 0.8 0.6 1.8 0.7 2.2 0.3 0.5 -0.4 0.4 -0.1 0 0.7 -0.6 1.1 -0.4 1.3 0.7 0.8 0.9 -0.3 2.5 0.1 3.6 0.8 1 0.8 2.3 1.1 2.7 0.7 0.5 -0.4 0.4 -0.1 0 0.7 -0.6 1.1 -0.4 1.3 1.1 0.7 1.5 -0.6 1.7 -0.5 0.7 0.5 -1 1 -1.6 1 -2.5 0.1 -1.5 -1.5 -3.2 -1.6 -2.3 -0.2 0.3 0.6 0.1 1 -0.4 1 -0.6 0 -1.1 -0.5 -1.1 -1.1z"/>
  <path d="M327.1 325.5 c0 -4.8 0.3 -6.4 0.9 -5 0.5 1.1 0.9 3.4 0.9 5 0 1.7 -0.4 3.9 -0.9 5 -0.6 1.4 -0.9 -0.2 -0.9 -5z"/>
  <path d="M47.2 329.8 c-1.4 -1.4 -1.6 -2.8 -0.3 -2.8 0.5 0 1.1 0.9 1.4 2 0.6 2.3 0.5 2.4 -1.1 0.8z"/>
  <path d="M593.5 318.8 c3.1 -4.3 5.5 -4.9 5.4 -1.5 0 1.2 -0.3 1.6 -0.6 1 -0.9 -2.3 -3.6 -1.5 -3 0.8 0.4 1.4 0.2 1.9 -0.8 1.6 -0.7 -0.3 -1.8 0 -2.5 0.6 -0.7 0.7 -0.1 -0.5 1.5 -2.5z"/>
  <path d="M43.6 316.6 c0.3 -0.9 0.1 -2.3 -0.6 -3.1 -0.7 -0.9 -1 -1.8 -0.6 -2.2 0.3 -0.3 0.6 -0.2 0.6 0.4 0 1.1 3.7 2.6 5.8 2.4 0.6 -0.1 1.2 0.5 1.2 1.4 0 0.8 -0.9 1.5 -1.9 1.5 -1.1 0 -2.7 0.3 -3.5 0.6 -1.2 0.5 -1.5 0.2 -1 -1z"/>
  <path d="M362 317 c0 -0.5 0.4 -1 0.9 -1 0.5 0 1.2 -0.8 1.4 -1.7 0.3 -1.1 0.5 -0.7 0.6 1 0.1 1.8 -0.4 2.7 -1.4 2.7 -0.8 0 -1.5 -0.4 -1.5 -1z"/>
  <path d="M54 315.6 c0 -1 0.9 -1.6 2.1 -1.6 2.4 0 2.1 2.3 -0.4 2.8 -1 0.2 -1.7 -0.3 -1.7 -1.2z"/>
  <path d="M327.3 312.5 c0 -2.2 0.2 -3 0.4 -1.7 0.2 1.2 0.2 3 0 4 -0.3 0.9 -0.5 -0.1 -0.4 -2.3z"/>
  <path d="M367.3 298.2 c0 -2.3 -0.5 -4.8 -1.2 -5.5 -1 -1 -1.1 -0.8 -0.5 0.7 0.5 1.4 0.4 1.7 -0.5 1.2 -0.6 -0.4 -0.9 -1.6 -0.6 -2.6 0.4 -1.2 -0.1 -2.2 -1.2 -2.9 -1 -0.6 -1.3 -1.1 -0.6 -1.1 0.7 0 2.3 1.5 3.6 3.3 2.2 2.7 2.4 3.8 1.7 7.2 l-0.8 4 0.1 -4.3z"/>
  <path d="M329.3 296.3 c-1.9 -0.7 -1.6 -2.8 0.9 -4.9 2.1 -1.9 2.1 -1.9 1.4 0.6 -0.4 1.4 -0.8 3.1 -0.8 3.8 -0.1 0.6 -0.2 1.2 -0.2 1.1 -0.1 0 -0.7 -0.3 -1.3 -0.6z"/>
  <path d="M39.4 280.5 c0 -4.9 0.1 -7.1 0.3 -4.8 0.2 2.3 0.2 6.4 0 9 -0.2 2.6 -0.3 0.8 -0.3 -4.2z"/>
  <path d="M336.5 284 c2.7 -2.7 5 -5 5.1 -5 0.1 0 -0.3 1.1 -0.9 2.4 -0.7 1.4 -1.4 2.3 -1.6 2 -0.6 -0.6 -3.1 1.7 -2.7 2.5 0.2 0.3 -0.8 1.2 -2.2 1.9 -2 0.9 -1.5 0 2.3 -3.8z"/>
  <path d="M359.4 284.8 c-0.3 -1 -0.9 -1.8 -1.4 -1.8 -0.4 0 -1.1 -0.8 -1.5 -1.7 -0.3 -1 1 -0.3 2.9 1.6 2 1.9 3.6 3.6 3.6 3.6 0 0.1 -0.7 0.2 -1.5 0.2 -0.8 0 -1.7 -0.9 -2.1 -1.9z"/>
  <path d="M82.9 281.8 c-0.7 -1.3 -0.4 -4.6 0.3 -4.2 0.4 0.3 0.5 1 0.2 1.6 -0.4 0.6 0 1.4 0.7 1.9 1 0.6 1.1 0.9 0.2 0.9 -0.7 0 -1.4 -0.1 -1.4 -0.2z"/>
  <path d="M639.2 204.5 c-1.7 -3.7 -1.4 -4.5 0.4 -1.2 0.9 1.6 1.4 3.1 1.1 3.3 -0.2 0.2 -0.9 -0.7 -1.5 -2.1z"/>
  <path d="M631.2 190.3 c-2.6 -3.8 -3.4 -5.3 -2.9 -5.3 0.2 0 1.6 1.8 3.1 4 2.9 4.5 2.8 5.6 -0.2 1.3z"/>
  <path d="M624.6 182.5 c-0.3 -0.8 -0.2 -1.5 0.3 -1.5 0.5 0 1.4 0.7 2.1 1.5 1 1.2 1 1.5 -0.3 1.5 -0.8 0 -1.7 -0.7 -2.1 -1.5z"/>
  <path d="M617.5 172.3 l-1.8 -2.8 2.7 2.4 c2.8 2.6 3.1 3.1 1.7 3.1 -0.5 0 -1.7 -1.2 -2.6 -2.7z"/>
  <path d="M87.6 167.5 c-1.1 -0.8 -1.5 -1.5 -1 -1.5 0.6 0 1.9 0.7 3 1.5 1 0.8 1.5 1.4 0.9 1.4 -0.5 0 -1.9 -0.6 -2.9 -1.4z"/>
 </g>
 <g fill="#efefef">
  <path d="M318.5 551.2 l-186 -0.2 0.3 -14.3 c0.1 -7.8 0.5 -15.2 0.7 -16.4 l0.5 -2.3 96.8 0 96.7 0 -0.1 -16.3 c-0.1 -8.9 0.2 -17.1 0.7 -18.2 0.6 -1.5 0.8 -1 0.8 2 0.1 2.8 0.4 3.6 1 2.6 0.7 -1.1 1 -0.6 1.3 1.8 l0.3 3.2 2.3 -2.1 c2.7 -2.6 2.8 -4 0.2 -4.7 -2.7 -0.7 -2.5 -1.9 0.3 -2.7 3.8 -1 4.7 -0.7 4.6 1.7 -0.3 3.6 1.9 7.7 4 7.7 2.4 0 4.3 -2.3 3.5 -4.4 -0.4 -1.1 0 -1.6 1.4 -1.6 1.4 0 2.2 0.8 2.4 2.3 0.5 3.3 4.5 3.6 5.7 0.4 0.8 -1.9 1.5 -2.3 3.5 -2 2.7 0.6 3.2 -0.2 1.7 -2.6 -0.7 -1.1 -0.1 -1.9 2.2 -3 2.6 -1.3 3.3 -2.4 3.8 -5.6 0.6 -4.1 1.4 25.4 1 35.8 -0.2 4.2 0 5.7 1 5.7 0.8 0 45.3 0 98.9 0.1 54 0 96.6 0.4 95.5 0.9 -1.1 0.4 -30.2 0.6 -64.7 0.3 -37.2 -0.4 -62.8 -0.2 -62.8 0.3 0 0.5 26.5 1 63.7 1.2 35 0.1 63.8 0.4 64 0.6 0.5 0.5 0.4 28.8 0 29.3 -0.7 0.6 -64 0.8 -245.2 0.5z m8.1 -31.3 c0.3 -0.5 -42.7 -0.9 -95.6 -0.9 -61.6 0 -96 0.3 -96 0.9 0 1.2 190.8 1.2 191.6 0z m66.7 -0.6 c-1.3 -0.2 -3.5 -0.2 -5 0 -1.6 0.2 -0.5 0.4 2.2 0.4 2.8 0 4 -0.2 2.8 -0.4z m-59.3 -23.2 c0 -1.2 -2 -2.5 -2.7 -1.8 -0.7 0.7 0.6 2.7 1.8 2.7 0.5 0 0.9 -0.4 0.9 -0.9z"/>
  <path d="M154.3 493 c-0.1 -1.1 0.3 -2 0.8 -2 0.6 0 0.9 -0.6 0.7 -1.2 -0.3 -0.7 0.2 -1.9 1 -2.7 0.8 -0.8 1.2 -2.6 1 -4.2 -0.3 -1.5 -0.1 -2.6 0.4 -2.3 0.4 0.3 0.8 -0.1 0.8 -0.8 0 -0.8 1.2 -1.9 2.8 -2.5 2.4 -1 2.4 -1.1 0.6 -1.2 -1.2 -0.1 -2.5 -0.8 -2.8 -1.7 -0.3 -0.8 -0.2 -1.3 0.3 -0.9 0.5 0.3 1.1 0.2 1.4 -0.2 0.2 -0.5 0.3 -0.3 0.1 0.3 -0.1 0.8 0.9 0.7 3.4 -0.2 2.1 -0.7 4.5 -1.3 5.5 -1.4 0.9 0 1.7 -0.4 1.7 -1 0 -0.5 1.7 -1 3.8 -1 3.9 0 7 -2.9 5.6 -5.2 -0.4 -0.7 0.7 -0.9 3.5 -0.6 2.2 0.2 4.1 0 4.1 -0.4 0 -0.5 0.9 -0.8 2 -0.8 1.1 0 2 0.5 2 1 0 0.6 0.7 1 1.5 1 0.8 0 1.5 0.5 1.5 1.1 0 0.7 1.1 0.8 3.1 0.4 1.7 -0.4 5 -0.4 7.2 -0.1 4.1 0.6 4.2 0.7 4.3 4.9 0 2.9 -0.5 4.7 -1.8 5.8 -1 0.9 -1.8 2.1 -1.8 2.8 0 0.6 -0.7 1.1 -1.5 1.1 -0.8 0 -1.5 0.5 -1.5 1 0 1.4 2.8 1.2 3.2 -0.2 0.3 -0.9 0.9 -0.8 2.2 0.5 2.1 2 2.5 2.1 5 0.2 1.1 -0.8 2.5 -1.5 3 -1.5 0.6 0 0.4 0.5 -0.4 1 -1.1 0.7 -1.2 1.2 -0.4 2 0.9 0.9 1.5 0.7 2.5 -0.7 1.5 -2 6.1 -4.3 8.4 -4.3 0.9 0 1.5 0.9 1.4 2.3 0 1.2 -0.3 1.6 -0.6 1 -0.7 -1.8 -5 -1.6 -5.7 0.3 -0.9 2.4 0.2 3.5 3 2.8 1.8 -0.5 2.4 -0.2 2.4 1.1 0 1.2 -0.5 1.5 -1.6 1.1 -0.9 -0.4 -2.3 -0.1 -3 0.5 -0.8 0.6 -2.5 0.9 -3.9 0.7 -1.4 -0.3 -2.5 -0.1 -2.5 0.4 0 0.4 2.8 0.6 6.3 0.4 5.8 -0.4 6.2 -0.6 6.5 -3 0.5 -3.6 4.2 -3.7 4.2 -0.1 0 1.9 0.5 2.5 2.3 2.5 1.3 0 2.8 -0.5 3.4 -1.1 0.8 -0.8 1.7 -0.8 3 -0.1 2.2 1.2 38.2 2.2 38.8 1.1 0.6 -0.8 9.5 0.1 11.5 1.2 1.3 0.7 1.3 0.9 0 1 -0.8 0.1 0.3 0.5 2.5 0.9 2.2 0.4 0.6 0.5 -3.5 0.2 -8.6 -0.7 -6.6 -0.7 -39.5 0.1 -13.7 0.4 -29.7 0.8 -35.5 0.9 -5.8 0.2 10.6 0.5 36.5 0.8 45.8 0.5 45.1 0.5 -26 0.8 -72.4 0.2 -73.1 0.2 -73.2 -1.8z m120 -2.7 c-1.3 -0.2 -3.3 -0.2 -4.5 0 -1.3 0.2 -0.3 0.4 2.2 0.4 2.5 0 3.5 -0.2 2.3 -0.4z m16 0 c-1.3 -0.2 -3.3 -0.2 -4.5 0 -1.3 0.2 -0.3 0.4 2.2 0.4 2.5 0 3.5 -0.2 2.3 -0.4z"/>
  <path d="M395.4 493.7 c-0.2 -0.7 -0.3 -8 -0.1 -16.2 l0.3 -15 0.2 15.8 0.2 15.7 36 0 c23.3 0 36 -0.4 36 -1 0 -0.6 -11.6 -1.1 -32.2 -1.2 -22.2 -0.1 -28.5 -0.4 -20.3 -0.8 6.6 -0.3 10.2 -0.7 8 -0.9 l-4 -0.4 3.5 -0.7 3.5 -0.7 -3.2 -1.4 c-3.1 -1.3 -6.7 -6.4 -5.7 -8.1 0.8 -1.2 4.2 -1 5 0.3 0.3 0.6 1.7 0.9 3 0.6 1.3 -0.2 2.4 0 2.4 0.6 0 0.6 0.2 0.8 0.5 0.5 1.2 -1.2 -0.9 -3.8 -3.1 -3.8 -1.5 0 -2.4 -0.6 -2.4 -1.5 0 -1.6 2.2 -1.8 7.5 -0.6 1.7 0.3 3 1.3 3 2.1 0 1.5 6.2 3.3 7.9 2.2 0.5 -0.3 3.2 -0.4 6 -0.3 4.2 0.2 5.3 -0.2 6.8 -2.1 l1.9 -2.3 1.6 2.3 c0.8 1.2 2.4 2.2 3.5 2.2 1.6 0 1.9 -0.5 1.5 -3.2 -0.8 -5.5 -1.8 -7.7 -3.3 -7.1 -2 0.7 -1.7 -0.7 0.4 -2.3 2.3 -1.8 3.2 -1.7 3.2 0.1 0 0.8 0.9 1.5 1.9 1.5 2.8 0 3.6 1.9 1.5 3.5 -1.7 1.2 -1.7 1.5 -0.3 3.2 0.9 1 1.8 2.4 2 3.1 0.3 1 1.1 0.8 2.8 -0.7 1.3 -1.2 3 -2.1 3.8 -2.1 2.6 0 1.4 -4.1 -1.6 -5.1 -1.5 -0.6 -3.4 -2.2 -4 -3.6 -1.2 -2.5 -1.1 -2.6 2 -1.9 1.7 0.3 3.5 0.6 4 0.6 0.5 0 0.9 0.8 1 1.8 0 1.4 0.2 1.4 1.5 -0.5 1.3 -1.8 2.2 -2.1 4.7 -1.6 1.8 0.3 3.8 1 4.5 1.6 0.9 0.7 1.6 0.7 2.4 -0.1 1.8 -1.8 8.5 -1.5 9.2 0.4 0.3 0.8 1.1 1.2 1.6 0.9 0.6 -0.4 3.1 0.3 5.6 1.5 3.2 1.6 4.6 3 5 4.9 0.8 3.8 4.3 7.9 5.4 6.2 1.1 -1.9 2.9 -0.5 2.3 1.8 -0.8 3 1.8 3.7 3.9 1.1 1 -1.2 1.8 -1.7 1.8 -1.1 0 1 0.5 0.9 4.9 -1.6 0.2 -0.1 -0.2 -1.6 -0.8 -3.2 -1 -2.2 -1 -3.4 -0.1 -5 0.8 -1.7 0.8 -2.2 -0.3 -2.7 -0.7 -0.2 -1.4 -1.8 -1.4 -3.5 0 -1.7 0.4 -2.5 0.8 -1.8 0.4 0.7 1.6 1 2.7 0.7 2.4 -0.7 5.2 0.8 3.6 2 -0.6 0.4 -1.3 1.4 -1.6 2.3 -0.4 1.1 0 1.5 1.5 1.5 1.2 -0.1 2.2 0.4 2.2 1.1 0 0.6 0.3 1.4 0.7 1.8 0.4 0.4 0.4 1.3 0.1 2.1 -0.3 0.8 0 1.4 0.7 1.4 0.6 0 0.8 0.5 0.4 1.1 -0.3 0.6 0 1.5 0.7 2 0.9 0.5 1 0.9 0.2 0.9 -0.6 0 -0.9 0.9 -0.6 2 0.3 1.1 0.9 1.7 1.4 1.4 0.5 -0.3 0.6 0.2 0.3 1.1 -0.4 0.9 -1.3 1.4 -2.2 1 -1.2 -0.4 -1.3 -0.3 -0.2 1 1 1.2 1.6 1.3 2.7 0.4 1.1 -1 1.2 -0.8 0.6 0.7 -0.3 1 -1.1 2.2 -1.6 2.5 -0.5 0.3 -0.1 0.9 0.8 1.2 0.9 0.4 1.3 0.3 1 -0.3 -0.3 -0.6 -0.1 -1 0.5 -1 0.6 0 1 0.8 0.8 1.8 -0.3 1.6 -4.7 1.7 -73.1 2 -59 0.2 -72.9 0 -73.3 -1.1z m136.9 -0.4 c-2.9 -0.2 -7.8 -0.2 -11 0 -3.2 0.2 -0.8 0.3 5.2 0.3 6.1 0 8.7 -0.1 5.8 -0.3z m-95.5 -3 c-1.5 -0.2 -4.2 -0.2 -6 0 -1.8 0.2 -0.6 0.4 2.7 0.4 3.3 0 4.8 -0.2 3.3 -0.4z m2.7 -2.3 c-0.3 -0.5 -1.5 -1 -2.5 -1 -1 0 -2.2 0.5 -2.5 1 -0.4 0.6 0.7 1 2.5 1 1.8 0 2.9 -0.4 2.5 -1z m96.5 -7.6 c0 -0.8 -0.4 -1.3 -0.9 -1 -0.5 0.4 -1.1 0.1 -1.3 -0.6 -0.3 -0.7 -0.7 -0.5 -1.1 0.6 -0.4 0.9 -0.3 1.5 0.2 1.1 0.5 -0.3 1.2 -0.1 1.6 0.5 0.9 1.5 1.5 1.2 1.5 -0.6z m-1.3 -7.4 c-0.1 -1.1 -0.2 -2 -0.4 -2 -0.1 0 -0.7 0.9 -1.3 2 -0.8 1.6 -0.8 2 0.4 2 0.9 0 1.4 -0.8 1.3 -2z"/>
  <path d="M398 491.6 c0 -1 2.8 -1.3 4.1 -0.5 1 0.6 0.7 0.9 -1.3 0.9 -1.6 0 -2.8 -0.2 -2.8 -0.4z"/>
  <path d="M297.5 490.4 c0.7 -0.3 0.9 -4.3 0.7 -10.7 -0.2 -5.6 0.1 -11.3 0.7 -12.7 0.7 -1.9 1 0.7 1 10.8 0.1 12 -0.1 13.2 -1.6 13.1 -1 0 -1.3 -0.3 -0.8 -0.5z"/>
  <path d="M399.2 481 c0.1 -7.2 0.3 -8 2.1 -8 1.4 0 1.7 0.4 1.2 1.8 -0.5 0.9 -1 4.5 -1.3 8 -0.6 8.9 -2.1 7.7 -2 -1.8z"/>
  <path d="M261.2 487.1 c-0.8 -0.5 0.3 -1.7 3.7 -4 2.8 -1.7 5.3 -4.1 5.6 -5.2 0.6 -1.9 0.7 -1.9 3.2 0.1 1.6 1.2 4.1 2 6.4 2 5 0 5.2 2.3 0.3 3.8 -3 0.9 -3.9 0.8 -5.1 -0.4 -1.7 -1.6 -3.2 -1.8 -5.3 -0.4 -1.2 0.8 -1.2 1 0.3 1.4 0.9 0.4 2.5 0.8 3.4 1.2 2.9 0.9 -0.2 2 -6 2.2 -2.9 0.1 -5.8 -0.2 -6.5 -0.7z"/>
  <path d="M412 475.4 c0 -0.8 1.1 -1.4 2.5 -1.4 1.4 0 2.5 0.4 2.5 0.9 0 0.5 -1.1 1.1 -2.5 1.3 -1.7 0.4 -2.5 0.1 -2.5 -0.8z"/>
  <path d="M440.3 476.3 c-2.6 -1 -1.3 -3.3 1.8 -3.3 3 0 6.4 2.2 5.2 3.4 -0.7 0.7 -5.2 0.7 -7 -0.1z"/>
  <path d="M447.5 469.1 c-0.3 -0.5 -0.1 -1.2 0.4 -1.5 1.3 -0.8 4.2 0.4 3.5 1.5 -0.7 1.2 -3.1 1.2 -3.9 0z"/>
  <path d="M528.4 462.5 c-0.4 -0.8 -0.3 -2.3 0.1 -3.2 0.5 -1.2 0.9 -1.4 1.2 -0.5 0.3 0.6 1 0.9 1.5 0.6 0.7 -0.5 0.8 -0.2 0.3 0.6 -0.4 0.7 -0.2 1.6 0.6 2.1 0.9 0.6 1 0.9 0.2 0.9 -0.7 0 -1.7 -0.8 -2.3 -1.7 -1 -1.6 -1.1 -1.5 -0.7 0.5 0.6 2.5 -0.1 3 -0.9 0.7z"/>
  <path d="M299.2 460 c0 -1.9 0.2 -2.7 0.5 -1.7 0.2 0.9 0.2 2.5 0 3.5 -0.3 0.9 -0.5 0.1 -0.5 -1.8z"/>
  <path d="M525.5 451.9 c-1.1 -1.7 -0.2 -1.8 1.9 -0.3 1.7 1.2 1.7 1.4 0.4 1.4 -0.9 0 -2 -0.5 -2.3 -1.1z"/>
  <path d="M554.6 450.2 c-0.2 -0.4 0.2 -1.6 1 -2.7 0.9 -1.2 1.4 -1.4 1.4 -0.5 0 1 0.3 1.1 1.1 0.3 1.3 -1.3 0.3 -3.6 -1.2 -2.8 -0.5 0.3 -0.6 -0.1 -0.3 -0.9 0.3 -0.9 0.9 -1.6 1.3 -1.7 0.3 0 1.3 -0.2 2.2 -0.4 2.7 -0.5 4.5 1.1 3.1 2.8 -0.7 0.7 -0.9 1.6 -0.6 1.9 0.3 0.3 0 0.9 -0.6 1.3 -0.6 0.3 -0.9 0.3 -0.8 -0.2 0.4 -1.6 -1.4 -5.3 -2.3 -4.7 -0.6 0.3 -0.6 1 -0.1 1.7 1.2 1.5 1.2 4.8 0 4.1 -0.4 -0.3 -1.1 0.2 -1.4 1 -0.7 1.7 -2 2.1 -2.8 0.8z"/>
  <path d="M139.4 447.1 c0.4 -0.5 0 -1.2 -0.6 -1.4 -0.8 -0.4 -0.9 -0.6 -0.2 -0.6 0.6 -0.1 1.7 0.6 2.4 1.4 1 1.2 0.9 1.5 -0.4 1.5 -1 0 -1.5 -0.4 -1.2 -0.9z"/>
  <path d="M564 445.1 c0 -0.5 0.9 -1.9 2 -3.2 l2 -2.4 -1.6 3.3 c-1.5 3.2 -2.4 4 -2.4 2.3z"/>
  <path d="M574.3 437.5 c0 -0.8 0.4 -1.2 0.8 -0.9 0.4 0.2 1 0 1.4 -0.6 0.3 -0.5 0.1 -1.1 -0.4 -1.1 -2.6 -0.3 -3 -0.4 -3.7 -1.1 -0.3 -0.4 0.4 -0.5 1.6 -0.3 3.5 0.7 4.3 2 2.2 3.8 -1.5 1.4 -1.9 1.4 -1.9 0.2z"/>
  <path d="M579 434.4 c0 -0.8 4 -4.4 4.8 -4.4 0.3 0 -0.5 1.1 -1.8 2.5 -2.4 2.6 -3 2.9 -3 1.9z"/>
  <path d="M109.6 427.1 c-2.7 -2.8 -3.4 -4.1 -2.5 -4.6 0.7 -0.5 1 -0.4 0.5 0.3 -0.3 0.6 -0.1 1.4 0.6 1.9 1.6 1 6.3 6.3 5.7 6.3 -0.3 0 -2.2 -1.7 -4.3 -3.9z"/>
  <path d="M585 429.6 c0 -0.6 6.4 -7.1 8.5 -8.6 1.1 -0.8 -0.2 0.9 -3 3.8 -4.7 5 -5.5 5.7 -5.5 4.8z"/>
  <path d="M213 379.5 c1.9 -1.9 3.6 -3.5 3.9 -3.5 0.3 0 -1 1.6 -2.9 3.5 -1.9 1.9 -3.6 3.5 -3.9 3.5 -0.3 0 1 -1.6 2.9 -3.5z"/>
  <path d="M473.9 371.3 l-3.4 -3.8 3.8 3.4 c2 1.9 3.7 3.6 3.7 3.8 0 0.8 -0.8 0 -4.1 -3.4z"/>
  <path d="M327.3 351.5 c0 -3.3 0.2 -4.5 0.4 -2.7 0.2 1.8 0.2 4.5 0 6 -0.2 1.5 -0.4 0 -0.4 -3.3z"/>
  <path d="M121.4 339.8 l-2.9 -3.3 3.3 2.9 c1.7 1.7 3.2 3.1 3.2 3.3 0 0.8 -0.8 0.1 -3.6 -2.9z"/>
  <path d="M327.4 325 c0 -6.9 0.1 -9.7 0.3 -6.2 0.2 3.4 0.2 9 0 12.5 -0.2 3.4 -0.3 0.6 -0.3 -6.3z"/>
  <path d="M338 282.5 c1.9 -1.9 3.6 -3.5 3.9 -3.5 0.3 0 -1 1.6 -2.9 3.5 -1.9 1.9 -3.6 3.5 -3.9 3.5 -0.3 0 1 -1.6 2.9 -3.5z"/>
 </g>
 <g fill="#e6e6e6">
  <path d="M407.8 521.3 c6.8 -0.2 17.6 -0.2 24 0 6.4 0.1 0.9 0.3 -12.3 0.3 -13.2 0 -18.5 -0.2 -11.7 -0.3z"/>
  <path d="M445.8 521.3 c1.2 -0.2 3.2 -0.2 4.5 0 1.2 0.2 0.2 0.4 -2.3 0.4 -2.5 0 -3.5 -0.2 -2.2 -0.4z"/>
  <path d="M478.3 521.3 c1.5 -0.2 3.9 -0.2 5.5 0 1.5 0.2 0.2 0.4 -2.8 0.4 -3 0 -4.3 -0.2 -2.7 -0.4z"/>
  <path d="M502.8 521.3 c1.2 -0.2 3 -0.2 4 0 0.9 0.3 -0.1 0.5 -2.3 0.4 -2.2 0 -3 -0.2 -1.7 -0.4z"/>
  <path d="M149.2 518.3 c6.5 -0.2 17.1 -0.2 23.6 0 6.4 0.1 1.1 0.3 -11.8 0.3 -12.9 0 -18.2 -0.2 -11.8 -0.3z"/>
  <path d="M191.3 518.3 c0.9 -0.2 2.5 -0.2 3.5 0 0.9 0.3 0.1 0.5 -1.8 0.5 -1.9 0 -2.7 -0.2 -1.7 -0.5z"/>
  <path d="M233.3 518.3 c3.1 -0.2 8.3 -0.2 11.5 0 3.1 0.2 0.5 0.3 -5.8 0.3 -6.3 0 -8.9 -0.1 -5.7 -0.3z"/>
  <path d="M254.7 518.3 c1.8 -0.2 5 -0.2 7 0 2.1 0.2 0.7 0.4 -3.2 0.4 -3.8 0 -5.5 -0.2 -3.8 -0.4z"/>
  <path d="M309.3 518.3 c0.9 -0.2 2.5 -0.2 3.5 0 0.9 0.3 0.1 0.5 -1.8 0.5 -1.9 0 -2.7 -0.2 -1.7 -0.5z"/>
  <path d="M319.8 518.3 c1.8 -0.2 4.5 -0.2 6 0 1.5 0.2 0 0.4 -3.3 0.4 -3.3 0 -4.5 -0.2 -2.7 -0.4z"/>
  <path d="M463.8 518.3 c11.1 -0.2 29.3 -0.2 40.5 0 11.1 0.1 2 0.2 -20.3 0.2 -22.3 0 -31.4 -0.1 -20.2 -0.2z"/>
  <path d="M283.3 494.3 c3.1 -0.2 8.3 -0.2 11.5 0 3.1 0.2 0.5 0.3 -5.8 0.3 -6.3 0 -8.9 -0.1 -5.7 -0.3z"/>
  <path d="M111 428.3 l-5.5 -5.8 5.8 5.5 c5.3 5 6.2 6 5.4 6 -0.1 0 -2.7 -2.6 -5.7 -5.7z"/>
  <path d="M593.5 421 c3.8 -3.8 7.2 -7 7.4 -7 0.3 0 -2.6 3.2 -6.4 7 -3.8 3.9 -7.2 7 -7.4 7 -0.3 0 2.6 -3.1 6.4 -7z"/>
  <path d="M92.5 409.8 l-4 -4.3 4.3 4 c3.9 3.6 4.7 4.5 3.9 4.5 -0.2 0 -2.1 -1.9 -4.2 -4.2z"/>
  <path d="M485 382.3 l-5.5 -5.8 5.8 5.5 c5.3 5 6.2 6 5.4 6 -0.1 0 -2.7 -2.6 -5.7 -5.7z"/>
  <path d="M220 372.5 c3.5 -3.6 6.7 -6.5 6.9 -6.5 0.3 0 -2.4 2.9 -5.9 6.5 -3.5 3.6 -6.7 6.5 -6.9 6.5 -0.3 0 2.4 -2.9 5.9 -6.5z"/>
  <path d="M469.9 367.3 l-3.4 -3.8 3.8 3.4 c2 1.9 3.7 3.6 3.7 3.8 0 0.8 -0.8 0 -4.1 -3.4z"/>
  <path d="M573 340.5 c1.9 -1.9 3.6 -3.5 3.9 -3.5 0.3 0 -1 1.6 -2.9 3.5 -1.9 1.9 -3.6 3.5 -3.9 3.5 -0.3 0 1 -1.6 2.9 -3.5z"/>
  <path d="M116 334.3 l-5.5 -5.8 5.8 5.5 c5.3 5 6.2 6 5.4 6 -0.1 0 -2.7 -2.6 -5.7 -5.7z"/>
  <path d="M581 333.5 c1.9 -1.9 3.6 -3.5 3.9 -3.5 0.3 0 -1 1.6 -2.9 3.5 -1.9 1.9 -3.6 3.5 -3.9 3.5 -0.3 0 1 -1.6 2.9 -3.5z"/>
  <path d="M585 328.7 c0 -0.2 1.5 -1.6 3.3 -3.3 l3.2 -2.9 -2.9 3.3 c-2.8 3 -3.6 3.7 -3.6 2.9z"/>
  <path d="M332 288.7 c0 -0.2 1.5 -1.6 3.3 -3.3 l3.2 -2.9 -2.9 3.3 c-2.8 3 -3.6 3.7 -3.6 2.9z"/>
  <path d="M358.9 283.3 l-3.4 -3.8 3.8 3.4 c2 1.9 3.7 3.6 3.7 3.8 0 0.8 -0.8 0 -4.1 -3.4z"/>
  <path d="M78 171.5 c1.9 -1.9 3.6 -3.5 3.9 -3.5 0.3 0 -1 1.6 -2.9 3.5 -1.9 1.9 -3.6 3.5 -3.9 3.5 -0.3 0 1 -1.6 2.9 -3.5z"/>
  <path d="M617.4 171.8 l-2.9 -3.3 3.3 2.9 c1.7 1.7 3.2 3.1 3.2 3.3 0 0.8 -0.8 0.1 -3.6 -2.9z"/>
 </g>
 <g fill="#dedede">
 </g>
 <g fill="#d6d6d6">
 </g>
 <g fill="#cecece">
 </g>
 <g fill="#c5c5c5">
 </g>
 <g fill="#bdbdbd">
 </g>
 <g fill="#b5b5b5">
 </g>
 <g fill="#adadad">
 </g>
 <g fill="#a5a5a5">
 </g>
 <g fill="#9c9c9c">
 </g>
 <g fill="#949494">
 </g>
 <g fill="#8c8c8c">
 </g>
 <g fill="#848484">
 </g>
 <g fill="#7b7b7b">
 </g>
 <g fill="#737373">
 </g>
 <g fill="#6b6b6b">
 </g>
 <g fill="#636363">
 </g>
 <g fill="#5a5a5a">
 </g>
 <g fill="#525252">
 </g>
 <g fill="#4a4a4a">
 </g>
 <g fill="#424242">
 </g>
 <g fill="#3a3a3a">
 </g>
 <g fill="#313131">
 </g>
 <g fill="#292929">
 </g>
 <g fill="#212121">
 </g>
 <g fill="#191919">
 </g>
 <g fill="#101010">
 </g>
 <g fill="#080808">
 </g>
 <g fill="#000000">
 </g>
</svg>