<?xml version="1.0" encoding="utf-8"?>
<!DOCTYPE svg PUBLIC "-//W3C//DTD SVG 1.0//EN" "http://www.w3.org/TR/2001/REC-SVG-20010904/DTD/svg10.dtd">
<svg version="1.0" xmlns="http://www.w3.org/2000/svg" width="2400px" height="720px" viewBox="0 0 2400 720" preserveAspectRatio="xMidYMid meet">
 <g fill="#ffffff">
  <path d="M2124 641.7 l0 -22.5 42.3 -0.4 c35.2 -0.4 43.8 -0.7 51.7 -2.2 20.4 -3.9 30.1 -8.8 43.1 -21.6 12.1 -12.1 17.5 -23.8 19.9 -43 0.6 -5.3 1 -47.9 1 -115.2 l0 -106.8 -44.7 0 c-49 0 -55 0.6 -69.1 6.3 -18.1 7.4 -33.3 22.9 -40.9 41.9 -8.3 20.5 -8.7 52.5 -0.8 72.1 7.5 18.6 22.5 33.6 41.7 41.3 24.4 10 63.9 5.9 87.1 -8.9 3.2 -2.1 6 -3.7 6.2 -3.7 0.3 0 0.5 10.5 0.5 23.4 l0 23.3 -8.7 4.1 c-17.5 8 -32.7 11.3 -53.3 11.3 -7.4 0 -16.7 -0.5 -20.5 -1 -49.2 -7.1 -91.5 -45 -102.6 -91.9 -6.1 -26.2 -3.8 -59.2 5.8 -82.8 13.6 -33.2 43.4 -61.1 77.3 -72.7 18.3 -6.2 15.8 -6 95.8 -6.4 l73.3 -0.4 -0.3 134.3 c-0.4 147.2 0 137.6 -6.4 157.8 -5.2 16.7 -12.1 27.7 -26.6 42.6 -14.1 14.5 -30 25.6 -44.8 31.3 -10.5 4 -30.4 8.8 -42 10.1 -5.2 0.6 -26.5 1.4 -47.2 1.7 l-37.8 0.6 0 -22.6z"/>
  <path d="M132 535 l0 -17 97.5 0 97.5 0 0 -100.3 c0 -55.2 0.3 -105.8 0.6 -112.5 l0.7 -12.1 6 -6.6 c11.7 -13 17.7 -12.7 29.3 1.3 l5.4 6.6 0 111.8 0 111.8 98 0 98 0 0 17 0 17 -216.5 0 -216.5 0 0 -17z"/>
  <path d="M1057 547.1 c-12.9 -5.8 -27.7 -14.4 -39 -22.4 -13.1 -9.4 -36 -33 -44.8 -46.2 -13.5 -20.2 -24.9 -46.6 -30.1 -69.5 -5.6 -24.9 -5.4 -20.3 -5.8 -134.7 l-0.4 -106.3 25 0 25 0 0.4 101.2 c0.3 97.3 0.4 101.8 2.5 114.3 3.9 24.1 8.4 39.1 16.3 54.5 11.1 21.5 29.9 40.5 54.9 55.4 l8 4.7 6.3 -3.7 c15.7 -9.4 33.9 -25.1 43.5 -37.6 13.9 -18.1 22.8 -39.6 28.4 -68.8 2.1 -11.3 2.2 -13.5 2.5 -115.7 l0.4 -104.3 24.9 0 25 0 0 90.3 c0 89.8 -0.7 114.9 -3.6 132.2 -12.4 75.1 -53 128.7 -119.7 158.1 -4.3 1.9 -8.1 3.4 -8.5 3.4 -0.4 -0.1 -5.4 -2.2 -11.2 -4.9z"/>
  <path d="M1285 436 l0 -106 -21.9 -0.2 -21.8 -0.3 10.2 -21.5 10.2 -21.5 34.6 -0.3 34.7 -0.2 0 128 0 128 -23 0 -23 0 0 -106z"/>
  <path d="M1403 355 l0 -187 23.5 0 23.5 0 0 110 0 110.1 5.3 -0.8 c6.7 -0.9 26.5 -0.9 34.2 0 l6 0.7 27.5 -50.8 27.5 -50.7 25.3 -0.3 c14.5 -0.1 25.2 0.1 25 0.7 -0.1 0.4 -14.4 25.2 -31.6 54.9 -17.3 29.8 -31.2 54.5 -31.1 54.9 0.2 0.4 4 2.2 8.6 3.9 24.5 9.2 41.3 27.5 49.7 54.2 5 15.8 5.7 22.6 6.3 56 l0.5 31.2 -23.1 0 -23.1 0 0 -23.2 c0 -12.8 -0.5 -26.3 -1 -29.9 -4.3 -29.7 -22.5 -50.1 -51.5 -57.9 -9.2 -2.5 -31.6 -3.7 -45.8 -2.5 l-8.7 0.7 0 56.4 0 56.4 -23.5 0 -23.5 0 0 -187z"/>
  <path d="M1683 436 l0 -106 -21.8 -0.2 -21.9 -0.3 10.2 -21.5 10.2 -21.5 34.6 -0.3 34.7 -0.2 0 128 0 128 -23 0 -23 0 0 -106z"/>
  <path d="M1804 413.9 l0 -128 61.8 0.4 c65.6 0.4 67.4 0.5 88.6 5.7 18 4.5 34.1 14.4 44 27 7.8 9.9 11.4 19 14.8 36.5 2 10.6 2.1 14.5 2.5 98.8 l0.4 87.7 -23 0 -23 0 -0.3 -82.7 -0.3 -82.8 -2.8 -9 c-1.6 -4.9 -4 -11.1 -5.4 -13.8 -5.5 -9.9 -17.3 -18 -32.1 -21.8 -6.7 -1.7 -11.2 -1.9 -43.4 -1.9 l-35.8 0 0 106 0 106 -23 0 -23 0 0 -128.1z"/>
  <path d="M154 493.9 c0 -2.9 5.7 -22.8 9.7 -33.8 20 -55.3 57.2 -98 106.8 -123 10.8 -5.4 25.8 -11.1 29.2 -11.1 1 0 1.3 16.6 1.3 84.5 l0 84.5 -73.5 0 c-51.5 0 -73.5 -0.3 -73.5 -1.1z"/>
  <path d="M395.7 494.3 c-0.8 -1.5 0.6 -168.3 1.4 -168.3 1.7 0 15.9 5.5 24.4 9.5 21.9 10.2 42.1 24.3 58.2 40.7 22.4 22.6 35.3 42.8 49.6 77.3 3.1 7.4 11.3 33 12.2 37.9 l0.7 3.6 -73 0 c-40.2 0 -73.3 -0.3 -73.5 -0.7z"/>
  <path d="M133.4 446.7 c-10.3 -7.1 -19.4 -14.9 -31.6 -27.1 -19.5 -19.5 -31.5 -36.2 -42.9 -59.1 -15.1 -30.7 -21.8 -63.3 -19 -93.6 2.2 -24.6 6.7 -41.1 16.6 -61.4 13.1 -26.8 25.9 -42 32.5 -38.5 2.7 1.5 2.6 4.7 -0.9 17.1 -12.1 43.6 -12 77.2 0.3 107.4 14.8 36.4 48.5 66.9 90.1 81.5 4.9 1.7 9.1 3.2 9.3 3.4 0.2 0.2 -2.8 4.3 -6.6 9 -9.9 12.3 -20.6 28.6 -31.1 47.1 -5 8.8 -9.4 16.5 -9.8 17.2 -0.6 0.8 -2.6 -0.1 -6.9 -3z"/>
  <path d="M548.1 437.3 c-9.7 -18.8 -21.4 -37.2 -37.9 -59.3 -1.1 -1.5 -0.5 -2 6.5 -4.5 38.5 -13.5 71.6 -41 88 -73.1 10.2 -19.9 13.8 -37.2 13 -62.9 -0.5 -18.3 -2.7 -30.5 -8.8 -50.8 -4.5 -15.1 -4.8 -18.2 -1.8 -19.7 3.4 -1.9 8.7 1.7 15.9 10.7 16.1 20 27.6 46.3 32.4 74.5 5.7 32.8 0.8 68.4 -13.9 101.8 -11.8 26.8 -36.4 59.3 -59.7 78.6 -7.7 6.5 -24.5 18.4 -25.9 18.4 -0.4 0 -4 -6.2 -7.8 -13.7z"/>
  <path d="M1296.3 239 c-6 -1.3 -9.6 -3.4 -13.6 -8.1 -9 -10.4 -9 -27.4 0 -37.8 5.7 -6.7 10.2 -8.6 20.8 -8.6 7.4 0 9.8 0.4 13.1 2.2 8.2 4.4 14.4 14.8 14.4 24.4 0 11.5 -5.6 21.6 -14.3 25.8 -4.9 2.3 -14.5 3.3 -20.4 2.1z"/>
  <path d="M1694.3 239 c-6 -1.3 -9.6 -3.4 -13.6 -8.1 -9.1 -10.5 -9 -26.4 0 -37.7 5.5 -6.7 10.1 -8.7 20.8 -8.7 7.4 0 9.8 0.4 13.1 2.2 11.8 6.3 17.5 22.3 12.7 35.7 -2.3 6.2 -8.2 12.9 -13.1 14.9 -5 2 -14.5 2.8 -19.9 1.7z"/>
 </g>
</svg>