<?xml version="1.0" encoding="utf-8"?>
<!DOCTYPE svg PUBLIC "-//W3C//DTD SVG 1.0//EN" "http://www.w3.org/TR/2001/REC-SVG-20010904/DTD/svg10.dtd">
<svg version="1.0" xmlns="http://www.w3.org/2000/svg" width="1280px" height="720px" viewBox="0 0 1280 720" preserveAspectRatio="xMidYMid meet">
 <g fill="#ffffff">
  <path d="M1174 444.1 l0 -7.9 18.8 -0.4 c16.8 -0.3 19.2 -0.6 23.7 -2.6 6 -2.7 10.9 -7.2 13.8 -12.7 2.1 -3.9 2.2 -5.1 2.5 -48.9 l0.3 -44.8 -18.8 0.4 c-16.8 0.4 -19.3 0.7 -23.8 2.7 -5.9 2.6 -11.9 8.1 -14.6 13.3 -4.3 8.3 -4.2 24.3 0.1 32.8 2 4 7.3 9.1 11.8 11.4 8.2 4.2 22.6 3.9 32.4 -0.8 l4.8 -2.3 0 8.2 0 8.3 -5 2.1 c-6.4 2.7 -15.5 3.8 -24.4 2.9 -14.2 -1.4 -29.1 -11.8 -35.4 -24.8 -11.6 -23.7 -1.7 -52.8 21.9 -64.4 9.5 -4.6 17.7 -5.6 46.1 -5.6 l21.8 0 0 50.9 c0 58.5 0 58.6 -8.7 70.1 -11.2 15 -24.4 20 -52.3 20 l-15 0 0 -7.9z"/>
  <path d="M771.5 406.7 c-17.1 -9.2 -29 -22.1 -35.3 -38.3 -4.8 -12.2 -5.4 -17.6 -5.9 -60.6 l-0.5 -40.8 9.5 0 9.6 0 0.3 42.3 c0.4 40.9 0.5 42.4 2.7 49.2 4.4 13.3 11.2 22.2 22.7 29.5 l4.7 3 4 -2.3 c6.7 -3.7 16.1 -13.7 19.6 -20.8 6.4 -12.9 6.4 -13.4 6.8 -59.1 l0.4 -41.8 9 0 9 0 -0.3 42.3 c-0.4 40 -0.5 42.6 -2.7 50.1 -4.4 15.6 -12.8 29 -24.1 38.3 -6.5 5.4 -18.9 12.3 -21.9 12.3 -0.9 0 -4.3 -1.5 -7.6 -3.3z"/>
  <path d="M860 367 l0 -40 -7.5 0 c-4.1 0 -7.5 -0.2 -7.5 -0.4 0 -0.2 1.6 -3.8 3.6 -8 l3.6 -7.6 12.4 0 12.4 0 0 48 0 48 -8.5 0 -8.5 0 0 -40z"/>
  <path d="M905 337 l0 -70 8.5 0 8.5 0 0 41.3 0 41.2 8.6 -0.1 8.7 -0.1 10.4 -19.2 10.5 -19.1 8.9 0 c4.9 0 8.9 0.2 8.9 0.4 0 0.2 -5.2 9.3 -11.5 20.1 -6.3 10.9 -11.5 20.3 -11.5 21 0 0.6 1.7 1.7 3.8 2.3 8.9 2.7 17.2 14.2 19.2 26.7 0.5 3.3 1 10.4 1 15.8 l0 9.7 -8.4 0 -8.4 0 -0.4 -12.2 c-0.3 -10.1 -0.8 -13 -2.5 -16.3 -5.1 -9.7 -13.3 -13.8 -27.3 -13.9 l-9.5 -0.1 -0.3 21.3 -0.2 21.2 -8.5 0 -8.5 0 0 -70z"/>
  <path d="M1009 367 l0 -40 -7.6 0 c-8.7 0 -8.6 0.4 -3.3 -10.2 l2.9 -5.8 12.5 0 12.5 0 0 48 0 48 -8.5 0 -8.5 0 0 -40z"/>
  <path d="M1055 359 l0 -48 15.3 0 c37.7 0.1 51.4 3.7 58.2 15.4 3.9 7 4.5 12.8 4.5 47.6 l0 33 -8 0 -8 0 0 -29 c0 -16.8 -0.4 -31 -1.1 -33.9 -1.5 -7 -4.6 -11.2 -10.4 -14.1 -4.5 -2.2 -6.5 -2.5 -19.7 -2.8 l-14.8 -0.4 0 40.1 0 40.1 -8 0 -8 0 0 -48z"/>
  <path d="M378 357 c0 -19.4 0.4 -31 1 -31 4.3 0 35 13.7 35 15.6 0 1.5 -7.8 2.9 -10.9 1.9 -1.6 -0.5 -3.2 0.6 -7.4 4.9 -3 3.1 -6.1 5.6 -7 5.6 -1 0 -1.7 0.5 -1.7 1.1 0 0.6 -0.9 1.8 -2 2.7 -1.7 1.5 -2 3.5 -2.6 16 -0.6 12.9 -0.9 14.2 -2.5 14.2 -1.8 0 -1.9 -1.5 -1.9 -31z"/>
  <path d="M491.7 377.6 c-0.4 -1 0.5 -1.8 2.5 -2.5 4 -1.4 3.8 -1.5 3.8 1.4 0 2.1 -0.5 2.5 -2.9 2.5 -1.6 0 -3.1 -0.6 -3.4 -1.4z"/>
  <path d="M160 375.5 c0 -2.9 -0.2 -2.8 3.9 -1.4 4.3 1.5 4.1 3.9 -0.4 3.9 -3.1 0 -3.5 -0.3 -3.5 -2.5z"/>
  <path d="M347 355.4 l0 -16.6 -3.2 0.6 c-9.3 1.7 -14 1.9 -14.8 0.6 -0.9 -1.5 -8 -0.5 -8 1 0 0.6 -0.9 1 -2 1 -1.3 0 -2 0.7 -2 2 0 1.6 -0.7 2 -3.4 2 -3 0 -3.4 -0.4 -4 -3.1 -0.8 -4.1 -0.8 -22.4 0 -37.7 l0.7 -12.1 6 -6.6 c11.7 -13 17.7 -12.7 29.3 1.3 l5.4 6.6 0 38.8 c0 38.1 0 38.8 -2 38.8 -1.9 0 -2 -0.7 -2 -16.6z"/>
  <path d="M221 357.6 c0 -1.1 7 -6.6 8.5 -6.6 0.3 0 0.5 1.5 0.5 3.4 0 3.7 -1.2 4.6 -6.1 4.6 -1.8 0 -2.9 -0.5 -2.9 -1.4z"/>
  <path d="M279 353.3 c0 -7.4 -1.1 -11.3 -3.1 -11.3 -1.1 0 -1.9 -0.6 -1.9 -1.3 0 -1.5 -8.1 -0.8 -11.5 1 -1.1 0.6 -5.7 1.4 -10.2 1.7 -6.8 0.6 -8.3 0.5 -8.3 -0.7 0 -2.4 32.5 -16.7 38.1 -16.7 0.5 0 0.9 7 0.9 15.5 0 14.8 -0.1 15.5 -2 15.5 -1.6 0 -2 -0.7 -2 -3.7z"/>
  <path d="M30 334 c-7.2 -23.1 -9.9 -45.4 -8.1 -66.6 2.1 -24.7 6.6 -41.4 16.6 -61.9 13.1 -26.8 25.9 -42 32.5 -38.5 2.7 1.5 2.6 4.7 -0.9 17.1 -11.8 42.5 -12 76.8 -0.6 105.4 1.4 3.4 2.5 6.5 2.5 6.8 0 0.4 1.4 2.9 3 5.5 1.7 2.7 3 5.5 3 6.3 0 0.8 -1.9 2.2 -4.2 3.2 -4 1.6 -4.1 1.8 -2.2 3.2 1 0.8 2.5 1.5 3.3 1.5 1 0 1.2 1.1 0.8 4.5 -0.2 2.6 -0.7 4.9 -1 5.2 -0.4 0.3 -3.1 0.2 -6.1 -0.1 -4.4 -0.6 -5.6 -1.2 -6.2 -2.9 -1 -3 -3 -4.8 -4.8 -4.1 -0.9 0.3 -1.6 1 -1.6 1.5 0 0.5 -0.8 0.9 -1.9 0.9 -1 0 -2.4 0.7 -3.1 1.5 -0.7 0.8 -2.5 1.5 -3.9 1.5 -1.5 0 -4.6 0.9 -6.9 2 l-4.2 2 0 8 c0 6.4 -0.3 8 -1.5 8 -1 0 -2.5 -3.3 -4.5 -10z"/>
  <path d="M625 340.8 c0.1 -1.8 0.5 -5.3 1.1 -7.8 2.2 -10.4 2.2 -10.4 -0.3 -12 -1.4 -0.9 -5.3 -1.5 -10.3 -1.6 -4.4 -0.1 -9.8 -0.5 -12.1 -0.9 -3.1 -0.5 -4.4 -0.3 -5.6 0.9 -0.9 0.9 -2 1.6 -2.4 1.6 -0.4 0 -1.5 0.6 -2.3 1.3 -0.9 0.8 -3.7 2 -6.3 2.7 -3.2 0.8 -4.8 1.8 -4.8 2.9 -0.1 2.9 -2.6 5.1 -5.9 5.1 -1.7 0 -3.1 -0.4 -3.1 -1 0 -0.5 -0.4 -1 -1 -1 -0.5 0 -1 0.7 -1 1.5 0 1 -1.1 1.5 -3.5 1.5 -1.9 0 -3.5 -0.3 -3.5 -0.7 0 -0.5 2.5 -3.7 5.6 -7.3 22 -25.7 31.1 -52.6 30.1 -88.5 -0.5 -18.2 -2.6 -30.3 -8.8 -50.8 -4.5 -15 -4.8 -18.2 -1.9 -19.7 4.5 -2.4 12.7 4.8 22.8 19.8 24.9 37.2 33.7 84.3 24 129.2 -3 14.2 -7.6 28 -9.3 28 -1 0 -1.5 -1.1 -1.5 -3.2z"/>
  <path d="M862.9 292.9 c-3.2 -1.2 -6.4 -7.7 -5.5 -11.3 1.2 -4.9 4.7 -7.7 9.5 -7.8 8.1 -0.1 12.5 7.7 8.6 15.3 -2.3 4.4 -7 5.8 -12.6 3.8z"/>
  <path d="M1011.1 292.6 c-5.5 -3 -6.7 -10.6 -2.5 -15.5 2.2 -2.7 3.2 -3.1 7.4 -3.1 4.2 0 5.2 0.4 7.4 3.1 7.3 8.6 -2.5 20.9 -12.3 15.5z"/>
 </g>
 <g fill="#f7f7f7">
  <path d="M129 550 c0 -2 0.7 -2 67.5 -2 66.8 0 67.5 0 67.5 2 0 2 -0.7 2 -67.5 2 -66.8 0 -67.5 0 -67.5 -2z"/>
  <path d="M268 550 c0 -1.9 0.7 -2 12.5 -2 11.8 0 12.5 0.1 12.5 2 0 1.9 -0.7 2 -12.5 2 -11.8 0 -12.5 -0.1 -12.5 -2z"/>
  <path d="M301 550 c0 -1.8 0.7 -2 8 -2 7.3 0 8 0.2 8 2 0 1.8 -0.7 2 -8 2 -7.3 0 -8 -0.2 -8 -2z"/>
  <path d="M325 550 c0 -1.9 0.7 -2 19.5 -2 18.8 0 19.5 0.1 19.5 2 0 1.9 -0.7 2 -19.5 2 -18.8 0 -19.5 -0.1 -19.5 -2z"/>
  <path d="M389 550 c0 -1.9 0.7 -2 10 -2 9.3 0 10 0.1 10 2 0 1.9 -0.7 2 -10 2 -9.3 0 -10 -0.1 -10 -2z"/>
  <path d="M413 550 c0 -1.6 0.7 -2 3.5 -2 2.8 0 3.5 0.4 3.5 2 0 1.6 -0.7 2 -3.5 2 -2.8 0 -3.5 -0.4 -3.5 -2z"/>
  <path d="M442 550 c0 -1.8 0.7 -2 5.5 -2 4.8 0 5.5 0.2 5.5 2 0 1.8 -0.7 2 -5.5 2 -4.8 0 -5.5 -0.2 -5.5 -2z"/>
  <path d="M543 544 c0 -7.3 0.2 -8 2 -8 1.8 0 2 0.7 2 8 0 7.3 -0.2 8 -2 8 -1.8 0 -2 -0.7 -2 -8z"/>
  <path d="M120.3 523.4 c-2.7 -0.4 -3.3 -1 -3.3 -3 l0 -2.4 56 0 56 0 0 2.5 0 2.5 -23.7 0 c-13.1 0 -36.8 0.2 -52.8 0.4 -15.9 0.2 -30.5 0.2 -32.2 0z"/>
  <path d="M279.8 523.3 l-17.8 -0.3 0 -2.5 0 -2.5 23.5 0 23.5 0 0 2.4 c0 2.7 -2.4 3.7 -8 3.4 -1.9 -0.2 -11.5 -0.4 -21.2 -0.5z"/>
  <path d="M444 520.5 l0 -2.5 21.5 0 21.5 0 0 2.5 0 2.5 -21.5 0 -21.5 0 0 -2.5z"/>
  <path d="M347 496.5 c0 -8.8 0.1 -9.5 2 -9.5 1.9 0 2 0.7 2 9.5 0 8.8 -0.1 9.5 -2 9.5 -1.9 0 -2 -0.7 -2 -9.5z"/>
  <path d="M238 492.5 c0 -2.5 0 -2.5 9.5 -2.5 l9.5 0 0 -3.5 c0 -3.1 0.3 -3.5 2.5 -3.5 1.8 0 2.5 -0.5 2.5 -1.9 0 -2.6 -2.4 -3.2 -8.5 -2.3 -4.9 0.7 -5 0.8 -5.9 5 -0.8 3.9 -1.1 4.2 -4.2 4.2 -2.4 0 -3.4 -0.5 -3.4 -1.5 0 -0.8 -0.7 -1.5 -1.5 -1.5 -0.9 0 -1.5 -0.9 -1.5 -2.4 0 -6.3 -1.8 -6.6 -23.9 -4.5 -11.9 1.1 -15.4 0.8 -24.3 -2.3 -2.8 -0.9 -3.8 -1.9 -3.8 -3.4 0 -1.9 -0.9 -2.3 -6.3 -3.3 -8.6 -1.5 -10.8 -1.4 -12.2 0.5 -1.7 2.4 -8.6 4.9 -16.7 5.9 -2.7 0.3 -4.8 1.1 -4.8 1.7 0 0.6 -1 4.4 -2.2 8.4 -2 6.5 -2.6 7.4 -4.6 7.4 -1.8 0 -2.3 -0.4 -1.8 -1.6 0.3 -0.8 1.5 -5.1 2.6 -9.4 10 -39 29.6 -74.6 57 -103.3 10.8 -11.4 25 -23.1 28.1 -23.3 1.1 -0.1 2.3 -0.5 2.7 -0.9 0.4 -0.5 -0.1 -0.5 -1 -0.2 -3.3 1.2 -1.9 0 6 -5 11 -7.1 15.2 -9.6 15.2 -8.8 0 0.3 0.7 -0.1 1.6 -0.9 0.8 -0.9 2 -1.4 2.5 -1.1 0.5 0.4 0.9 0 0.9 -0.7 0.1 -0.8 0.7 -0.5 1.6 0.7 1.6 1.9 1.6 1.9 1 -0.5 l-0.7 -2.5 1.7 2.2 c0.8 1.2 2.2 1.9 3 1.6 1.1 -0.4 0.9 -1 -0.9 -2.5 -1.2 -1.1 -1.6 -1.7 -0.9 -1.3 0.6 0.3 1.2 0.2 1.2 -0.4 0 -0.6 0.7 -0.8 1.5 -0.5 0.8 0.4 1.3 1 1 1.4 -0.3 0.5 -0.1 1.1 0.4 1.5 0.6 0.3 1.5 -0.4 2.1 -1.6 0.7 -1.2 0.8 -1.9 0.3 -1.6 -0.5 0.3 -1.5 0.1 -2.3 -0.5 -1.2 -0.8 -1.2 -0.9 0.3 -0.4 1 0.3 1.7 0 1.7 -0.7 0 -0.7 0.7 -0.3 1.5 0.7 0.8 1 1.2 2.3 0.9 2.7 -0.3 0.5 0.2 0.9 1 0.9 0.9 0 1.5 -0.4 1.3 -0.9 -0.1 -0.5 0.3 -0.9 0.8 -0.9 0.6 0 0.9 0.5 0.7 1.1 -0.1 0.7 0.3 0.5 1 -0.3 0.7 -0.8 2.4 -1.4 3.7 -1.2 1.5 0.2 2.1 0 1.7 -0.7 -0.4 -0.6 0 -1.1 0.8 -1.1 0.9 0 1.6 0.5 1.6 1 0 0.6 0.5 1 1.1 1 0.5 0 0.7 -0.4 0.4 -1 -0.3 -0.5 -0.1 -1 0.4 -1 0.6 0 1.1 -0.7 1.1 -1.5 0 -0.8 -0.5 -1.5 -1.1 -1.5 -0.5 0 -0.8 0.4 -0.5 0.8 0.3 0.5 -0.1 0.9 -0.9 0.9 -0.8 0 -1.2 -0.4 -0.9 -0.9 0.3 -0.4 0.1 -0.8 -0.5 -0.8 -0.5 0 -1.2 0.6 -1.4 1.3 -0.3 0.7 -0.6 0.5 -0.6 -0.5 -0.1 -1 0.4 -1.8 1 -1.8 0.5 0 0.7 -0.5 0.3 -1.2 -0.5 -0.8 0 -0.9 1.4 -0.6 1.2 0.4 2.2 0.2 2.2 -0.3 0 -0.5 0.7 -0.9 1.5 -0.9 1.2 0 1.4 1.1 1 5.3 -0.3 2.8 -0.4 9 -0.3 13.7 0.1 4.7 0.3 40.2 0.3 79 l0 70.5 -22.2 0.3 -22.3 0.2 0 -2.5z"/>
  <path d="M378.1 494.1 c-1.2 -0.8 -1.3 -4.9 -0.8 -25.3 0.4 -13.3 0.8 -37.8 0.8 -54.3 0.2 -28.9 1.3 -55.4 2.6 -58.5 0.3 -0.8 0.6 -1.8 0.5 -2.2 -0.1 -0.4 0.5 -0.5 1.3 -0.2 0.9 0.4 1.5 0 1.5 -1 0 -0.9 0.8 -1.6 2 -1.6 1.1 0 1.9 -0.6 1.7 -1.2 -0.1 -0.7 0.3 -1.2 1 -1.1 1.6 0.3 5.5 -4.7 4.9 -6.4 -0.3 -0.7 -0.1 -1.3 0.4 -1.3 0.6 0 1 0.5 1 1.1 0 0.5 0.5 0.7 1 0.4 0.6 -0.4 0.8 -1.1 0.5 -1.6 -0.4 -0.5 0 -0.9 0.8 -0.9 0.8 0 2 -0.6 2.6 -1.4 0.9 -1.1 0.5 -1.6 -1.9 -2.6 -2.7 -1.1 -3.8 -3.3 -1.7 -3.1 2.5 0.2 5.7 1.5 5.7 2.3 0 0.5 0.4 0.7 0.8 0.4 0.4 -0.2 1.4 -0.1 2.2 0.4 1.2 0.7 1.2 1.1 -0.1 2.6 -0.8 1 -0.9 1.5 -0.2 1.1 0.6 -0.4 1.3 -0.4 1.6 0 0.2 0.5 0.2 0.3 0.1 -0.4 -0.5 -1.9 1.3 -2.5 2.8 -1.1 0.7 0.7 1.9 1.4 2.5 1.5 2.7 0.6 22 12.7 30.6 19.2 10 7.5 26.6 23.8 34.8 34 13.6 17.2 25.3 38 35.2 63.1 3.4 8.7 4.1 11.6 2.8 12.4 -0.6 0.4 -1.1 1.8 -1.1 3.1 0 3.4 -3.6 5.5 -9.5 5.5 -6.1 0 -16.6 -1.7 -17.4 -2.7 -0.3 -0.5 -2.6 -1.8 -5.1 -2.9 -4.6 -2.3 -4.5 -2.3 -23.2 -0.5 -0.5 0.1 -0.8 1 -0.8 2.1 0 1.7 -0.7 2 -4.9 2 -2.6 0 -7.3 0.5 -10.2 1.2 -3.2 0.7 -13.5 1.2 -25.3 1.3 l-19.9 0 -0.1 6.3 -0.2 6.2 15.8 0 15.8 0 0 2.5 0 2.5 -24.7 0 c-13.7 0 -25.4 -0.4 -26.2 -0.9z"/>
  <path d="M518.1 488.3 c-2.6 -8.4 -2.8 -12.6 -0.4 -12.1 1.2 0.2 2.4 2.7 4 8.3 2.4 8.3 2.4 10.5 -0.1 10.5 -0.9 0 -2.2 -2.5 -3.5 -6.7z"/>
  <path d="M311.6 489.9 l-2.6 -2 0.1 -89.7 c0 -49.3 0.4 -88.8 0.8 -87.7 0.4 1.1 0.9 7.4 1 13.9 0.3 13.3 1.2 16.7 3.9 14.3 1.6 -1.4 4.5 -2.3 10.5 -3.2 1.6 -0.3 3.2 -0.7 3.7 -1 0.5 -0.3 1.5 0.4 2.4 1.6 1 1.5 2 1.9 3.3 1.4 2.1 -0.9 5.8 -1.6 9.3 -1.8 1.4 -0.1 3 -0.9 3.7 -1.7 0.6 -0.8 1.5 -1.2 1.9 -0.8 0.4 0.4 0.9 34.5 1.2 75.8 l0.5 75 -2.1 0 c-1.1 0 -2.2 -0.5 -2.4 -1.1 -0.5 -1.6 -4.6 2.4 -5.3 5.3 -0.6 2.5 -1.1 2.6 -9.7 3.3 -7.1 0.6 -9.2 0.4 -9.9 -0.6 -0.6 -1 -0.9 -1.1 -0.9 -0.1 0 2 -6.5 1.4 -9.4 -0.9z"/>
  <path d="M115.4 446.7 c-22.1 -15.2 -50.1 -44.7 -65.1 -68.8 -8.3 -13.3 -17.7 -33.6 -17.5 -37.7 0.1 -1.3 -0.2 -2.1 -0.7 -1.8 -0.5 0.4 -0.7 -0.4 -0.3 -1.6 0.3 -1.3 0.1 -1.9 -0.5 -1.5 -0.6 0.4 -1.3 -0.2 -1.6 -1.4 -0.3 -1.2 0 -2.2 0.9 -2.6 0.8 -0.3 1.1 -0.9 0.8 -1.4 -0.3 -0.5 -0.9 -0.7 -1.4 -0.4 -0.5 0.3 -1.1 0.1 -1.5 -0.5 -0.3 -0.5 -0.2 -1 0.3 -1 0.5 0 1.4 -1.1 2 -2.5 0.6 -1.4 1.6 -2.5 2.2 -2.5 0.6 0 0.8 0.5 0.5 1 -0.7 1.1 3.6 -0.6 7.2 -2.8 1.2 -0.7 3 -1.1 4.1 -0.8 1.2 0.4 2.5 -0.1 3.6 -1.3 1 -1.1 2.4 -1.7 3.2 -1.4 0.9 0.3 1.4 0 1.2 -0.7 -0.3 -1.3 1.8 -2 6.5 -2.3 1.5 -0.1 2.7 -0.7 2.7 -1.4 0 -0.6 0.5 -1.5 1.2 -1.9 0.7 -0.4 0.8 -0.3 0.4 0.5 -0.4 0.6 1.4 -0.2 4 -1.9 2.6 -1.6 5.4 -3 6.1 -3 2.1 0 1.5 -1.7 -1.7 -4.3 -2.1 -1.8 -3 -3.5 -3 -5.6 0 -1.6 -0.5 -3.3 -1.1 -3.7 -0.6 -0.3 -0.9 -1.9 -0.7 -3.5 0.3 -1.6 0.1 -3.1 -0.4 -3.3 -0.5 -0.2 -0.4 -0.4 0.2 -0.3 1.5 0.3 8.1 15.7 7.3 17 -0.3 0.5 -0.1 0.7 0.4 0.4 0.6 -0.4 2.8 2.2 4.8 5.8 14.4 24.6 41.5 47.3 71.5 59.7 13 5.4 13.1 5.4 15.3 5.7 4.2 0.5 3.8 1.9 -3.1 10.5 -9.9 12.3 -20.5 28.5 -31.1 47.1 -5 8.8 -9.4 16.5 -9.8 17.2 -0.6 0.8 -2.6 -0.1 -6.9 -3z m-47.1 -126.3 c-0.4 1.4 -0.3 1.7 0.6 1.2 1.9 -1.2 0.9 -3.9 -1.5 -4.1 -1.5 -0.1 -2.1 0.4 -1.9 1.4 0.2 0.9 0.4 2 0.4 2.5 0.1 0.6 0.8 0.1 1.6 -1 1.5 -1.8 1.5 -1.8 0.8 0z"/>
  <path d="M531.6 440.1 c-9.4 -18.7 -24.3 -42.4 -36.1 -57.7 -4.6 -5.8 -4.7 -6.3 -2.3 -6.8 0.7 -0.2 2.2 -0.7 3.3 -1.1 1.1 -0.4 5.4 -2.1 9.5 -3.7 16.4 -6.4 35.8 -18.6 51.1 -32.2 5.3 -4.7 9.9 -8.3 10.2 -8 0.3 0.3 0.4 -0.3 0.4 -1.3 -0.1 -1.1 0.4 -1.7 1.3 -1.5 0.8 0.2 1.2 0.1 0.8 -0.3 -0.9 -0.9 10.2 -15.1 11.5 -14.7 0.5 0.2 0.7 -0.4 0.4 -1.2 -0.4 -1 -0.1 -1.3 0.9 -0.9 1.1 0.4 1.2 0.8 0.3 1.9 -0.7 0.8 -1.4 1.2 -1.7 1 -0.6 -0.6 -7.2 7.9 -7.2 9.3 0 0.5 -0.5 1.1 -1.2 1.3 -1.4 0.5 -0.3 3.8 1.2 3.8 0.6 0 1.5 -1.1 2 -2.5 0.5 -1.4 1.6 -2.5 2.5 -2.5 2.5 0 3 -0.2 4.3 -2.2 0.8 -1 1.8 -1.5 2.5 -1.1 2.4 1.5 3.9 1.1 5.5 -1.5 1 -1.6 2.8 -2.8 4.2 -3 5.4 -0.5 11.9 -0.2 14.4 0.8 1.5 0.5 2.5 0.7 2.3 0.2 -0.4 -0.6 5.6 -0.6 13.3 0 0.8 0 2.3 0.7 3.2 1.6 1.3 1.1 2.1 1.2 3.1 0.3 1.1 -0.8 1.6 -0.5 2.6 1.5 0.7 1.6 0.7 2.3 0.1 1.9 -0.7 -0.4 -0.9 0.3 -0.6 1.9 0.3 1.4 0 2.8 -0.5 3.2 -0.6 0.3 -0.8 1.3 -0.5 2.1 0.3 0.8 0.1 1.1 -0.4 0.8 -1.4 -0.9 -3.2 4.4 -2.5 7.2 0.3 1.3 0.1 2.3 -0.4 2.3 -0.4 0 -0.9 1 -0.9 2.3 0 2.7 -7.7 20 -12.7 28.7 -14.3 24.4 -34.7 48.9 -53.8 64.4 -8.3 6.7 -22.7 16.6 -24.1 16.6 -0.3 0 -3 -4.9 -6 -10.9z"/>
  <path d="M270.3 330.6 c0 -0.8 0.6 -1.2 1.4 -0.9 0.7 0.3 1.3 0.9 1.3 1.4 0 0.5 -0.6 0.9 -1.3 0.9 -0.8 0 -1.4 -0.6 -1.4 -1.4z"/>
  <path d="M347 290.8 c-4.2 -5.4 -5.2 -7.2 -2.2 -3.8 2.9 3.2 6.5 8 5.9 8 -0.2 0 -1.9 -1.9 -3.7 -4.2z"/>
  <path d="M21.4 280.5 c0 -4.9 0.1 -7.1 0.3 -4.8 0.2 2.3 0.2 6.4 0 9 -0.2 2.6 -0.3 0.8 -0.3 -4.2z"/>
  <path d="M318.5 284 c2.7 -2.7 5.1 -5 5.4 -5 0.3 0 -1.7 2.3 -4.4 5 -2.7 2.8 -5.1 5 -5.4 5 -0.3 0 1.7 -2.2 4.4 -5z"/>
  <path d="M628.2 220.5 c-1.7 -3.7 -1.4 -4.5 0.4 -1.2 0.9 1.6 1.4 3.1 1.1 3.3 -0.2 0.2 -0.9 -0.7 -1.5 -2.1z"/>
  <path d="M620.7 203.5 c-0.9 -1.9 -1.5 -3.5 -1.2 -3.5 0.7 0 3.7 6.1 3.3 6.6 -0.3 0.2 -1.2 -1.2 -2.1 -3.1z"/>
  <path d="M614.6 192.5 c-0.9 -1.4 -2.3 -3.7 -3.2 -5.2 l-1.6 -2.8 2 2.4 c2.4 2.9 5.5 8.1 4.9 8.1 -0.3 0 -1.2 -1.1 -2.1 -2.5z"/>
 </g>
 <g fill="#efefef">
  <path d="M114 534.8 l0 -16.8 97.5 0 97.5 0 0 -18.1 c0 -16.1 0.2 -18 1.6 -17.5 0.9 0.3 1.8 0.6 2 0.6 0.3 0 0.3 0.4 0 0.9 -0.3 0.4 0.3 1.6 1.4 2.6 1.2 1 2 1.3 2 0.7 0 -0.7 -0.4 -1.2 -1 -1.2 -0.5 0 -1 -0.5 -1 -1.1 0 -0.5 0.4 -0.8 0.9 -0.5 0.5 0.3 1.4 -0.1 2.1 -0.9 1.4 -1.7 3.5 -2.1 2.5 -0.5 -0.4 0.6 0.5 1 2 1 2 0 2.6 0.4 2.1 1.5 -0.3 0.9 0 1.5 1 1.5 0.8 0 1.2 0.5 0.9 1 -0.3 0.6 -0.1 1 0.4 1 0.6 0 1.1 -0.5 1.1 -1 0 -0.7 1.3 -0.8 3.4 -0.4 4 0.7 8.5 -1.9 8.6 -4.9 0 -1 0.5 -1.5 1 -1.2 0.6 0.3 1 0.2 1 -0.2 0 -1.3 8 -4.7 8.8 -3.8 0.6 0.6 0.8 6 1.1 33.3 l0.1 7.2 98.1 0 98 0 -0.3 17 -0.3 17 -216.2 -0.2 -216.3 -0.3 0 -16.7z m95.9 -15.4 c0.2 -0.2 -20 -0.3 -45 -0.3 -25 0.1 -43.8 0.5 -41.9 0.9 3.3 0.7 86.1 0.1 86.9 -0.6z m94.6 0.6 c1.2 -0.5 -6.5 -0.8 -19 -0.7 l-21 0.1 18 0.6 c9.9 0.3 18.5 0.6 19 0.7 0.6 0.1 1.9 -0.2 3 -0.7z m172.8 -0.7 c-4 -0.2 -10.7 -0.2 -15 0 -4.3 0.1 -1 0.3 7.2 0.3 8.3 0 11.8 -0.2 7.8 -0.3z"/>
  <path d="M136 493.2 c0 -1 0.3 -2.2 0.7 -2.6 0.7 -0.6 1.3 -2.9 1.5 -5.3 0.1 -0.7 0.6 -1.3 1.1 -1.3 0.5 0 0.7 -0.9 0.4 -2 -0.3 -1.1 -0.1 -2 0.5 -2 0.6 0 0.8 -0.9 0.5 -2 -0.3 -1.2 -0.1 -1.8 0.5 -1.4 0.6 0.4 0.8 -0.1 0.4 -1.2 -0.4 -1.3 0.1 -2.4 1.5 -3.2 1.2 -0.8 1.8 -0.9 1.4 -0.2 -0.4 0.7 0.1 0.9 1.7 0.6 1.2 -0.3 3.7 -0.8 5.3 -1 5 -0.8 10.7 -3.2 12.4 -5.2 1.2 -1.5 2.8 -1.9 6.6 -1.8 7.3 0.2 18.5 2.5 17.8 3.7 -0.3 0.5 0.3 0.7 1.4 0.3 1.3 -0.4 2 -0.2 2 0.8 0 0.8 -0.8 1.3 -1.9 1.1 -1 -0.2 -1.8 0.1 -1.8 0.7 0 0.5 0.6 0.8 1.3 0.5 0.7 -0.3 2.1 0.1 3.1 0.9 1.1 0.7 2.3 1.1 2.7 0.8 0.5 -0.3 0.9 0 0.9 0.7 0 0.7 1 0.9 2.5 0.7 1.4 -0.3 2.5 -0.2 2.5 0.2 0 0.7 6 0.5 15 -0.6 3 -0.3 9.2 -0.7 13.8 -0.9 8.9 -0.3 10 0.3 10.4 5.8 0.2 1.9 0.7 2.3 2.5 1.9 1.3 -0.2 2.2 -1 2 -1.6 -0.2 -0.6 -1.1 -1 -2.1 -0.8 -0.9 0.2 -1.6 -0.2 -1.6 -0.8 0 -0.5 1.1 -1 2.4 -1 1.4 0 2.7 -0.4 3 -0.8 0.2 -0.4 6.8 -0.8 14.5 -0.7 7.8 0 14.1 -0.3 14.1 -0.6 0 -1 5.9 -0.5 6.3 0.5 0.3 0.6 0.4 2.7 0.3 4.6 -0.1 3 -0.5 3.5 -2.9 3.8 -2.7 0.3 -3 0.9 -2.8 4.7 0 1.1 -0.2 1.4 -0.5 0.8 -0.9 -1.9 -2 -1.5 -2 0.7 0 1.6 0.6 1.9 4.3 1.6 3.8 -0.3 4.2 -0.1 3.1 1.2 -1.1 1.3 -1 1.5 0.5 0.9 1.1 -0.4 1.6 -0.3 1.2 0.3 -0.4 0.6 -26.6 1 -73.6 1 -70 0 -72.9 -0.1 -72.9 -1.8z m134.3 0.1 c-5.1 -0.2 -13.5 -0.2 -18.5 0 -5.1 0.1 -1 0.3 9.2 0.3 10.2 0 14.3 -0.2 9.3 -0.3z"/>
  <path d="M377.7 494.3 c-0.4 -0.3 -0.7 -7.6 -0.7 -16.1 0 -16.4 0.7 -20.5 1.1 -6.2 0.1 4.9 0.7 8.8 1.3 9.2 0.8 0.5 0.7 0.8 -0.1 0.8 -2 0 -1.7 7.9 0.2 8.7 2.2 0.8 2.5 0.3 3 -5.1 0.3 -3 0.1 -4.5 -0.5 -4.1 -0.6 0.4 -0.5 -0.5 0.2 -1.9 0.6 -1.4 1.5 -2.6 2 -2.6 0.5 0 0.4 0.8 -0.1 1.8 -0.5 1 -0.6 2.4 -0.2 3.1 0.5 0.7 0.5 3 0.1 5.1 -0.7 3.7 -0.6 3.8 1.7 2.7 1.2 -0.5 2.3 -1.4 2.3 -1.9 0 -0.4 0.5 -0.8 1.1 -0.8 0.5 0 0.8 0.4 0.5 0.8 -0.3 0.5 0.1 0.9 0.9 0.9 0.8 0 1.2 -0.4 0.9 -0.8 -0.2 -0.4 0 -0.9 0.6 -1.1 1.6 -0.5 1.5 -7.8 -0.1 -8.9 -0.8 -0.5 -1.5 -0.4 -1.7 0.1 -0.2 0.6 -1.1 1 -2 1 -1.4 0 -1.4 -0.2 -0.3 -0.9 1.1 -0.7 1.1 -0.9 0 -1.4 -0.8 -0.3 0 -0.4 1.6 -0.3 1.7 0.1 3.6 -0.4 4.3 -1.1 0.7 -0.7 2.9 -1.4 4.8 -1.5 10 -0.4 12.2 -0.4 15.1 0.3 1.8 0.3 3.4 0.4 3.7 0.1 1.1 -1 9.7 -1.2 11.6 -0.2 1.5 0.8 2 0.8 2 -0.1 0 -0.8 0.5 -0.7 1.7 0.2 0.9 0.8 1.4 0.9 1 0.3 -0.4 -0.8 0.8 -1.2 3.9 -1.2 5.5 -0.2 6.7 -0.8 5.8 -3.4 -0.5 -1.7 -0.3 -2 1.1 -1.5 0.9 0.4 2.3 0.7 3.2 0.7 0.8 0 1.3 0.6 1 1.3 -0.3 0.8 0.7 1.2 2.9 1.3 3.1 0.1 3.4 -0.2 3.4 -2.8 0 -2.5 0.2 -2.7 2 -1.8 1.4 0.8 2.2 0.7 3.2 -0.4 0.9 -0.9 2 -1.1 3.5 -0.5 1.5 0.5 2.3 0.5 2.3 -0.2 0 -0.6 0.5 -0.7 1.1 -0.3 0.6 0.4 4.6 0.8 8.8 1 9.2 0.3 10.2 0.5 9.5 1.5 -0.3 0.5 0.7 1.1 2.1 1.5 1.4 0.3 2.5 1 2.5 1.5 0 2 16.2 3.2 18.7 1.4 1.8 -1.4 2.7 -4.5 1.1 -4.5 -0.5 0 0.3 -1.3 1.9 -2.9 l2.8 -2.9 2.7 8.1 c1.5 4.4 2.5 8.4 2.2 8.8 -0.3 0.5 -0.1 0.9 0.4 0.9 0.6 0 0.8 0.9 0.5 2 -0.3 1.2 0 2 0.6 2 0.7 0 1 0.4 0.6 0.9 -0.3 0.5 0 1.3 0.6 1.6 0.5 0.4 0.8 1.3 0.5 2.1 -0.3 0.7 -0.1 1.6 0.4 1.9 0.4 0.3 0.7 1.3 0.6 2.3 -0.3 1.6 -4.7 1.7 -72.8 2 -39.8 0.1 -72.8 -0.1 -73.1 -0.5z m35.1 -1 c-5.4 -0.2 -14.2 -0.2 -19.5 0 -5.4 0.1 -1 0.3 9.7 0.3 10.7 0 15.1 -0.2 9.8 -0.3z"/>
  <path d="M325.9 486.8 c0 -0.2 -0.2 -1.1 -0.4 -2.1 -0.3 -1.5 -0.1 -1.6 1.1 -0.6 0.7 0.6 1.1 1.5 0.8 2 -0.5 0.9 -1.3 1.2 -1.5 0.7z"/>
  <path d="M120.6 450.2 c-0.2 -0.4 -0.1 -1.4 0.3 -2.1 0.6 -1 1 -0.9 1.4 0.3 0.6 1.6 -0.8 3.2 -1.7 1.8z"/>
  <path d="M536.5 450.1 c-0.3 -0.6 1.2 -1.7 3.2 -2.6 7.2 -3.1 10.2 -4.8 12.3 -6.7 1.2 -1.1 2.4 -1.8 2.7 -1.5 0.5 0.5 -15.8 11.7 -17 11.7 -0.3 0 -0.8 -0.4 -1.2 -0.9z"/>
  <path d="M556 438.1 c0 -0.6 0.3 -1.1 0.8 -1.1 0.4 0 2.1 -1.3 3.7 -2.8 3.2 -3 9.5 -7.6 9.5 -7 0 0.2 -3.1 3 -7 6.2 -3.8 3.1 -7 5.2 -7 4.7z"/>
  <path d="M129 436.7 c0 -1.1 7.9 -14.7 8.6 -14.7 0.4 0 -1.8 4.2 -6.8 12.5 -1 1.7 -1.8 2.6 -1.8 2.2z"/>
  <path d="M93 428.3 l-5.5 -5.8 5.8 5.5 c5.3 5 6.2 6 5.4 6 -0.1 0 -2.7 -2.6 -5.7 -5.7z"/>
  <path d="M74.5 409.8 l-4 -4.3 4.3 4 c3.9 3.6 4.7 4.5 3.9 4.5 -0.2 0 -2.1 -1.9 -4.2 -4.2z"/>
  <path d="M463.1 378.7 c-8 -8.4 -11.6 -12.5 -8.2 -9.2 9.6 9.1 24.1 24.6 23 24.4 -0.2 0 -6.9 -6.8 -14.8 -15.2z"/>
  <path d="M199 375.5 c5.2 -5.2 9.7 -9.5 10 -9.5 0.2 0 -3.8 4.3 -9 9.5 -5.2 5.2 -9.7 9.5 -10 9.5 -0.2 0 3.8 -4.3 9 -9.5z"/>
  <path d="M309.2 352 c0 -1.9 0.2 -2.7 0.5 -1.7 0.2 0.9 0.2 2.5 0 3.5 -0.3 0.9 -0.5 0.1 -0.5 -1.8z"/>
  <path d="M555 340.5 c1.9 -1.9 3.6 -3.5 3.9 -3.5 0.3 0 -1 1.6 -2.9 3.5 -1.9 1.9 -3.6 3.5 -3.9 3.5 -0.3 0 1 -1.6 2.9 -3.5z"/>
  <path d="M99.5 335.8 l-7 -7.3 7.3 7 c3.9 3.8 7.2 7.1 7.2 7.2 0 0.8 -1.1 -0.2 -7.5 -6.9z"/>
  <path d="M563 333.5 c1.9 -1.9 3.6 -3.5 3.9 -3.5 0.3 0 -1 1.6 -2.9 3.5 -1.9 1.9 -3.6 3.5 -3.9 3.5 -0.3 0 1 -1.6 2.9 -3.5z"/>
  <path d="M309.3 325 c0 -3 0.2 -4.3 0.4 -2.7 0.2 1.5 0.2 3.9 0 5.5 -0.2 1.5 -0.4 0.2 -0.4 -2.8z"/>
  <path d="M567 328.7 c0 -0.2 1.5 -1.6 3.3 -3.3 l3.2 -2.9 -2.9 3.3 c-2.8 3 -3.6 3.7 -3.6 2.9z"/>
  <path d="M340.9 283.3 l-3.4 -3.8 3.8 3.4 c2 1.9 3.7 3.6 3.7 3.8 0 0.8 -0.8 0 -4.1 -3.4z"/>
  <path d="M60 171.5 c1.9 -1.9 3.6 -3.5 3.9 -3.5 0.3 0 -1 1.6 -2.9 3.5 -1.9 1.9 -3.6 3.5 -3.9 3.5 -0.3 0 1 -1.6 2.9 -3.5z"/>
  <path d="M599.4 171.8 l-2.9 -3.3 3.3 2.9 c1.7 1.7 3.2 3.1 3.2 3.3 0 0.8 -0.8 0.1 -3.6 -2.9z"/>
 </g>
 <g fill="#e6e6e6">
  <path d="M128.3 518.3 c4.3 -0.2 11 -0.2 15 0 4 0.1 0.5 0.3 -7.8 0.3 -8.2 0 -11.5 -0.2 -7.2 -0.3z"/>
  <path d="M467.3 518.3 c0.9 -0.2 2.5 -0.2 3.5 0 0.9 0.3 0.1 0.5 -1.8 0.5 -1.9 0 -2.7 -0.2 -1.7 -0.5z"/>
  <path d="M575 421.5 c4.7 -4.7 8.7 -8.5 9 -8.5 0.2 0 -3.3 3.8 -8 8.5 -4.7 4.7 -8.7 8.5 -9 8.5 -0.2 0 3.3 -3.8 8 -8.5z"/>
 </g>
 <g fill="#dedede">
 </g>
 <g fill="#d6d6d6">
 </g>
 <g fill="#cecece">
 </g>
 <g fill="#c5c5c5">
 </g>
 <g fill="#bdbdbd">
 </g>
 <g fill="#b5b5b5">
 </g>
 <g fill="#adadad">
 </g>
 <g fill="#a5a5a5">
 </g>
 <g fill="#9c9c9c">
 </g>
 <g fill="#949494">
 </g>
 <g fill="#8c8c8c">
 </g>
 <g fill="#848484">
 </g>
 <g fill="#7b7b7b">
 </g>
 <g fill="#737373">
 </g>
 <g fill="#6b6b6b">
 </g>
 <g fill="#636363">
 </g>
 <g fill="#5a5a5a">
 </g>
 <g fill="#525252">
 </g>
 <g fill="#4a4a4a">
 </g>
 <g fill="#424242">
 </g>
 <g fill="#3a3a3a">
 </g>
 <g fill="#313131">
 </g>
 <g fill="#292929">
 </g>
 <g fill="#212121">
 </g>
 <g fill="#191919">
 </g>
 <g fill="#101010">
 </g>
 <g fill="#080808">
 </g>
 <g fill="#000000">
 </g>
</svg>