<?xml version="1.0" encoding="utf-8"?>
<!DOCTYPE svg PUBLIC "-//W3C//DTD SVG 1.0//EN" "http://www.w3.org/TR/2001/REC-SVG-20010904/DTD/svg10.dtd">
<svg version="1.0" xmlns="http://www.w3.org/2000/svg" width="1120px" height="1120px" viewBox="0 0 1120 1120" preserveAspectRatio="xMidYMid meet">
 <g fill="#041b45">
  <path d="M584.8 733.4 c-0.2 -48.9 -0.3 -92.8 -0.3 -97.6 0 -4.7 -0.3 -8.9 -0.7 -9.3 -0.4 -0.4 -3.4 1 -6.8 3 -3.4 2 -6.3 3.6 -6.5 3.4 -0.1 -0.2 -0.6 -11.8 -1 -25.6 -0.5 -17.1 -0.4 -25.3 0.3 -25.3 0.5 0 4.3 1.6 8.3 3.5 11.7 5.5 18.3 6.8 32.8 6.3 10.2 -0.3 13.5 -0.8 17.3 -2.5 6.8 -3.1 13.2 -9.4 15.9 -15.8 l2.4 -5.5 9.8 0 9.7 0 0 33.5 c0 43.6 1.1 40.1 -22.9 70.3 -15.1 19.1 -21.5 28.1 -20.7 28.9 0.4 0.4 10.2 -9 21.9 -20.8 31.6 -31.8 30.7 -29.4 31.4 -83.7 l0.5 -38.2 -51.8 0.2 -51.9 0.3 -0.1 3.4 c0 3.2 -0.7 3.9 -8.7 9.5 l-8.7 6 -8.7 -6.1 c-8 -5.5 -8.8 -6.4 -9.1 -9.7 l-0.3 -3.6 -52.3 0 -52.4 0 0.3 37.8 c0.3 33.4 0.6 38.5 2.2 44.3 3.8 13.1 7.9 18.7 30 40.8 11.2 11.2 20.7 20.1 21 19.7 0.8 -0.8 -7.3 -12.4 -20.2 -29 -13.7 -17.5 -16.9 -22.2 -20.3 -29.4 l-2.7 -5.7 -0.3 -34.2 -0.4 -34.3 9.9 0 10 0 2.3 4.9 c3 6.5 9.1 12.4 16.5 15.8 5.2 2.4 7.5 2.8 16.6 3.1 12.7 0.4 19.7 -1.1 31.7 -6.8 5.8 -2.8 8.4 -3.6 8.8 -2.7 0.2 0.7 0.3 12.6 0.2 26.5 l-0.3 25.2 -6 -4 c-3.3 -2.2 -6.4 -3.9 -6.8 -3.7 -0.4 0.1 -0.8 22.5 -0.8 49.7 -0.1 27.2 -0.4 71 -0.8 97.4 l-0.6 47.8 -5 -7.8 c-12.5 -19.8 -36.7 -46 -54.8 -59.4 -18.9 -14 -39.7 -25.7 -59.3 -33.3 -25.1 -9.8 -59.4 -16.9 -89.3 -18.6 l-11.4 -0.6 8.9 -9.5 c22.7 -24.2 40.4 -46.9 55.4 -71.1 21 -33.7 28.5 -53.8 29.8 -79.9 l0.7 -12.5 70 -0.5 70 -0.5 0 -91 0 -90.9 8.2 -8.6 8.1 -8.5 2.7 2.5 c6.9 6.3 14.6 16.1 14.9 18.7 0.2 1.5 0.4 42.3 0.5 90.6 l0.1 87.7 69.5 0 69.5 0 0 7.3 c0 10.5 2.3 23.9 6 34.7 10.5 31.7 39.9 77.4 75.4 117.7 6.4 7.3 11.6 13.5 11.6 13.8 0 0.3 -2.7 0.5 -6 0.5 -3.2 0 -12.9 0.9 -21.4 2 -63.9 8.2 -114.4 31.2 -153.7 70 -12.1 12 -20.3 22 -30.2 37 -3.8 5.8 -7.1 10.7 -7.3 10.9 -0.2 0.2 -0.5 -39.6 -0.6 -88.5z"/>
  <path d="M397.4 509.3 c0.4 -4.9 1.9 -14.6 3.3 -21.8 1.5 -7.3 2.2 -13 1.6 -13.2 -2.1 -0.7 -22.9 -12.6 -24.5 -14 -1.3 -1.2 -1.5 -2 -0.7 -3.5 0.8 -1.5 0.7 -2.4 -0.5 -3.7 -1.8 -2 -2.1 -4.2 -0.7 -5.7 0.5 -0.5 2.2 -3.1 3.6 -5.9 3.4 -6.2 6.5 -11.8 9.4 -16.7 1.1 -2.1 3 -5.4 4.1 -7.4 1.1 -1.9 2.9 -4.7 3.9 -6.2 1 -1.5 2.6 -4 3.5 -5.5 1.3 -2.1 2.3 -2.7 3.7 -2.4 1.1 0.3 2.6 -0.1 3.3 -0.9 2.3 -2.2 3.9 -1.8 15.6 4.1 6 3 11.5 5.5 12.1 5.5 0.7 0 6.2 -4.9 12.3 -10.8 18.2 -17.7 34 -28.3 55.7 -37.2 8.2 -3.4 21.9 -8 23.7 -8 0.2 0 0.2 2.1 0 4.6 l-0.3 4.6 -10.6 3.8 c-25.9 9.1 -45 21.2 -64.2 40.6 -24.8 25.2 -41.1 60.2 -44.9 96.3 l-1.2 12.1 -4.5 0 -4.4 0 0.7 -8.7z"/>
  <path d="M701.7 517.3 c-0.4 -0.3 -0.7 -2.5 -0.7 -4.7 0 -6.9 -2.8 -21.7 -6.5 -34.6 -14.9 -51.7 -53.1 -92.2 -103.2 -109.3 l-9.3 -3.2 0 -4.8 c0 -5.7 -1.6 -5.8 16.5 1 21.1 7.8 38.6 18.2 54.7 32.6 5.3 4.8 10.1 9.3 10.5 10.1 0.4 0.7 2.2 3 4 5 l3.2 3.6 11 -5.5 c14.7 -7.4 15.7 -7.7 17.1 -6 0.6 0.8 2.3 1.5 3.7 1.7 2 0.2 3.6 1.8 6.5 6.3 2.1 3.3 4.1 6.7 4.5 7.5 0.4 0.8 2.8 5.1 5.4 9.5 2.5 4.4 6.8 11.8 9.3 16.5 4.6 8.2 4.6 8.5 2.8 10 -1.5 1.1 -1.8 2 -1.2 3.5 0.5 1.1 0.9 2.3 0.9 2.6 0.1 0.6 -16.8 10.4 -24.6 14.3 -3.4 1.7 -3.4 1.1 -0.2 10.9 1.5 4.7 3.8 21.3 3.9 28 l0 5.7 -3.8 0 c-2.1 0 -4.2 -0.3 -4.5 -0.7z"/>
 </g>
 <g fill="#f05f10">
  <path d="M420.2 517.3 l-4.3 -0.4 0.6 -6.2 c1 -9.6 5 -28.5 8 -37.3 10.8 -32.6 35.3 -63.3 64.2 -80.4 12.7 -7.5 35.5 -17.1 37 -15.6 0.3 0.3 0.6 31.9 0.7 70.3 l0.1 69.8 -51 0.1 c-28 0 -52.9 -0.1 -55.3 -0.3z"/>
  <path d="M582 447.5 l0 -70.4 8.8 3 c21 7.5 39.6 19.2 55.8 35.4 24.7 24.6 40.3 58.2 44 94.6 l0.6 6.6 -3.8 0.6 c-2.2 0.4 -26.7 0.7 -54.6 0.7 l-50.8 0 0 -70.5z"/>
  <path d="M368.9 447.6 c-21.4 -16 -35 -34.9 -41 -57.1 -3 -11.1 -3.3 -37.9 -0.5 -50.5 3.5 -16.1 11.7 -34.7 19.9 -45.4 4.6 -5.9 16.8 -18.6 17.9 -18.6 0.4 0 -0.2 2.4 -1.4 5.3 -16.1 39.4 -16.9 67 -2.6 92.7 4.9 8.8 12 16 20.9 21.3 6.2 3.6 16.9 7.5 22.1 7.9 l2.4 0.2 -3.2 5.3 c-1.8 3 -3.7 5.9 -4.2 6.6 -0.5 0.7 -1.9 2.9 -3.1 5 -1.2 2 -3.1 5.4 -4.2 7.5 -1.2 2 -3.2 5.5 -4.4 7.7 -1.2 2.2 -3.5 6.3 -5 9 -1.5 2.8 -3.3 6 -4 7.2 -1.1 2.1 -1.3 2 -9.6 -4.1z"/>
  <path d="M726.6 448.2 c-1.3 -2.6 -5.3 -9.7 -8.8 -15.7 -3.5 -6.1 -6.7 -11.7 -7.1 -12.5 -0.4 -0.8 -2.9 -5 -5.6 -9.2 l-5 -7.8 3.7 0 c10 0 26 -7.1 34.5 -15.3 24.4 -23.5 27.3 -61 8.2 -105.8 -1.9 -4.3 -3 -7.9 -2.4 -7.9 1.6 0 12.6 10.8 17.6 17.3 8.9 11.5 17.1 30.5 20.8 48.2 7.7 36.8 -3.9 73.7 -30.8 98 -8.1 7.3 -19.4 15.5 -21.4 15.5 -0.7 0 -2.4 -2.2 -3.7 -4.8z"/>
 </g>
</svg>